<?xml version="1.0" encoding="UTF-8" standalone="no"?>
<!DOCTYPE svg PUBLIC "-//W3C//DTD SVG 1.1//EN" "http://www.w3.org/Graphics/SVG/1.1/DTD/svg11.dtd">
<svg width="100%" height="100%" viewBox="0 0 2315 700" version="1.1" xmlns="http://www.w3.org/2000/svg" xmlns:xlink="http://www.w3.org/1999/xlink" xml:space="preserve" xmlns:serif="http://www.serif.com/" style="fill-rule:evenodd;clip-rule:evenodd;stroke-linejoin:round;stroke-miterlimit:1.41421;">
    <g transform="matrix(1,0,0,1,-192.57,-1393.59)">
        <g transform="matrix(2.7,0,0,1.1,-2835,1193.59)">
            <g transform="matrix(1.59674,0,0,0.67563,-1595.87,297.301)">
                <rect x="1866.53" y="391.732" width="371.738" height="379.223" style="fill:rgb(255,225,0);"/>
            </g>
        </g>
        <g transform="matrix(2.7,0,0,1.1,-2835,1193.59)">
            <g transform="matrix(0.643238,0,0,0.715113,523.409,288.395)">
                <g transform="matrix(0.384414,0,0,1,646.365,0)">
                    <path d="M1990.13,565.74L2036.51,565.634L2036.7,651.363C2036.74,670.37 2031.89,684.636 2022.14,694.162C2012.4,703.687 1998.09,708.471 1979.21,708.515C1968.31,708.539 1958.44,706.801 1949.59,703.299C1940.75,699.797 1933.46,694.663 1927.73,687.897L1952.98,657.934C1956.71,662.577 1960.37,666.025 1963.97,668.276C1967.56,670.528 1971.29,671.649 1975.14,671.64C1980.06,671.629 1983.81,670.158 1986.39,667.228C1988.98,664.298 1990.27,659.976 1990.25,654.26L1990.13,601.228L1990.13,565.74Z" style="fill-rule:nonzero;"/>
                </g>
                <g transform="matrix(0.306581,-0.0018184,0.00069902,0.797529,788.69,453.029)">
                    <path d="M2181.2,324.945C2166.7,324.944 2152.58,323.32 2138.83,320.07C2125.08,316.82 2113.79,312.445 2104.95,306.946L2123.95,263.948C2132.29,268.781 2141.62,272.656 2151.95,275.572C2162.28,278.489 2172.2,279.947 2181.7,279.947C2189.87,279.947 2195.7,279.156 2199.2,277.572C2202.7,275.989 2204.45,273.614 2204.45,270.448C2204.45,266.781 2202.16,264.031 2197.57,262.198C2192.99,260.365 2185.45,258.365 2174.95,256.199C2161.45,253.365 2150.2,250.324 2141.2,247.074C2132.2,243.824 2124.37,238.491 2117.7,231.075C2111.04,223.659 2107.7,213.618 2107.7,200.952C2107.7,189.952 2110.79,179.953 2116.95,170.954C2123.12,161.954 2132.33,154.871 2144.58,149.705C2156.83,144.538 2171.7,141.955 2189.2,141.955C2201.2,141.955 2212.99,143.247 2224.57,145.83C2236.16,148.413 2246.36,152.205 2255.2,157.204L2237.45,199.952C2220.28,191.286 2204.03,186.953 2188.7,186.953C2173.53,186.953 2165.95,190.619 2165.95,197.952C2165.95,201.452 2168.2,204.077 2172.7,205.826C2177.2,207.576 2184.62,209.451 2194.95,211.451C2208.28,213.951 2219.53,216.826 2228.7,220.076C2237.86,223.325 2245.82,228.617 2252.57,235.95C2259.32,243.283 2262.7,253.282 2262.7,265.948C2262.7,276.947 2259.61,286.905 2253.45,295.821C2247.28,304.737 2238.07,311.82 2225.82,317.07C2213.57,322.32 2198.7,324.944 2181.2,324.945Z" style="fill-rule:nonzero;"/>
                </g>
            </g>
        </g>
        <g transform="matrix(2.7,0,0,1.1,-2835,1193.59)">
            <g transform="matrix(1.32172,0,0,0.67563,-979.675,297.301)">
                <rect x="1866.53" y="391.732" width="371.738" height="379.223" style="fill:rgb(240,240,240);"/>
            </g>
        </g>
        <g transform="matrix(2.7,0,0,1.1,-2835,1193.59)">
            <g transform="matrix(1.59838,0,0,0.762717,-1598.92,-26.0539)">
                <rect x="1866.53" y="391.732" width="371.738" height="379.223"/>
            </g>
        </g>
        <g transform="matrix(2.7,0,0,1.1,-2835,1193.59)">
            <g transform="matrix(0.352877,0,0,0.866153,717.108,215.144)">
                <path d="M2112.45,229.45C2122.79,233.283 2130.79,238.866 2136.45,246.199C2142.12,253.532 2144.95,262.365 2144.95,272.698C2144.95,288.03 2138.62,299.904 2125.95,308.32C2113.29,316.737 2094.95,320.945 2070.96,320.945L1972.46,320.945L1972.46,145.955L2065.96,145.955C2089.29,145.955 2106.91,150.121 2118.83,158.454C2130.74,166.787 2136.7,177.87 2136.7,191.702C2136.7,199.868 2134.66,207.201 2130.58,213.701C2126.49,220.201 2120.45,225.45 2112.45,229.45ZM2030.46,187.203L2030.46,213.201L2057.96,213.201C2070.79,213.201 2077.21,208.868 2077.21,200.202C2077.21,191.536 2070.79,187.203 2057.96,187.203L2030.46,187.203ZM2065.96,279.697C2078.96,279.697 2085.45,275.114 2085.45,265.948C2085.45,256.782 2078.96,252.199 2065.96,252.199L2030.46,252.199L2030.46,279.697L2065.96,279.697Z" style="fill:white;fill-rule:nonzero;"/>
                <path d="M2340.05,324.945C2321.22,324.944 2304.3,321.028 2289.3,313.195C2274.3,305.362 2262.55,294.488 2254.05,280.572C2245.55,266.656 2241.3,250.949 2241.3,233.45C2241.3,215.951 2245.55,200.243 2254.05,186.328C2262.55,172.412 2274.3,161.537 2289.3,153.705C2304.3,145.872 2321.22,141.955 2340.05,141.955C2358.88,141.955 2375.8,145.872 2390.8,153.705C2405.8,161.537 2417.55,172.412 2426.04,186.328C2434.54,200.243 2438.79,215.951 2438.79,233.45C2438.79,250.949 2434.54,266.656 2426.04,280.572C2417.55,294.488 2405.8,305.362 2390.8,313.195C2375.8,321.028 2358.88,324.944 2340.05,324.945ZM2340.05,277.197C2347.38,277.197 2354.01,275.406 2359.92,271.823C2365.84,268.239 2370.55,263.156 2374.05,256.574C2377.55,249.991 2379.3,242.283 2379.3,233.45C2379.3,224.617 2377.55,216.909 2374.05,210.326C2370.55,203.743 2365.84,198.66 2359.92,195.077C2354.01,191.494 2347.38,189.702 2340.05,189.702C2332.72,189.702 2326.09,191.494 2320.18,195.077C2314.26,198.66 2309.55,203.743 2306.05,210.326C2302.55,216.909 2300.8,224.617 2300.8,233.45C2300.8,242.283 2302.55,249.991 2306.05,256.574C2309.55,263.156 2314.26,268.239 2320.18,271.823C2326.09,275.406 2332.72,277.197 2340.05,277.197Z" style="fill:white;fill-rule:nonzero;"/>
                <path d="M2617.89,276.947L2601.89,276.947L2601.89,320.945L2542.9,320.945L2542.9,145.955L2627.14,145.955C2643.31,145.955 2657.39,148.621 2669.39,153.955C2681.39,159.288 2690.64,166.954 2697.14,176.953C2703.64,186.953 2706.89,198.619 2706.89,211.951C2706.89,224.45 2704.05,235.366 2698.39,244.699C2692.72,254.032 2684.55,261.448 2673.89,266.948L2710.64,320.945L2647.64,320.945L2617.89,276.947ZM2647.39,211.951C2647.39,205.452 2645.39,200.41 2641.39,196.827C2637.39,193.244 2631.39,191.452 2623.39,191.452L2601.89,191.452L2601.89,232.45L2623.39,232.45C2631.39,232.45 2637.39,230.658 2641.39,227.075C2645.39,223.492 2647.39,218.451 2647.39,211.951Z" style="fill:white;fill-rule:nonzero;"/>
                <path d="M2957.23,276.447L2957.23,320.945L2811.74,320.945L2811.74,145.955L2953.98,145.955L2953.98,190.452L2869.74,190.452L2869.74,210.951L2943.73,210.951L2943.73,253.449L2869.74,253.449L2869.74,276.447L2957.23,276.447Z" style="fill:white;fill-rule:nonzero;"/>
                <path d="M3062.58,145.955L3121.58,145.955L3121.58,275.197L3200.58,275.197L3200.58,320.945L3062.58,320.945L3062.58,145.955Z" style="fill:white;fill-rule:nonzero;"/>
                <path d="M3421.17,290.447L3354.67,290.447L3342.93,320.945L3282.93,320.945L3359.42,145.955L3417.42,145.955L3493.92,320.945L3432.92,320.945L3421.17,290.447ZM3404.92,247.949L3387.92,203.952L3370.92,247.949L3404.92,247.949Z" style="fill:white;fill-rule:nonzero;"/>
            </g>
        </g>
        <g transform="matrix(2.7,0,0,1.1,-2835,1193.59)">
            <g transform="matrix(0.299633,0,0,0.735463,923.257,518.782)">
                <path d="M2010.46,191.702L1959.21,191.702L1959.21,145.955L2120.7,145.955L2120.7,191.702L2069.46,191.702L2069.46,320.945L2010.46,320.945L2010.46,191.702Z" style="fill-rule:nonzero;"/>
                <path d="M2250.74,324.945C2231.91,324.944 2214.99,321.028 2199.99,313.195C2184.99,305.362 2173.24,294.488 2164.74,280.572C2156.24,266.656 2151.99,250.949 2151.99,233.45C2151.99,215.951 2156.24,200.243 2164.74,186.328C2173.24,172.412 2184.99,161.537 2199.99,153.705C2214.99,145.872 2231.91,141.955 2250.74,141.955C2269.57,141.955 2286.49,145.872 2301.49,153.705C2316.49,161.537 2328.24,172.412 2336.73,186.328C2345.23,200.243 2349.48,215.951 2349.48,233.45C2349.48,250.949 2345.23,266.656 2336.73,280.572C2328.24,294.488 2316.49,305.362 2301.49,313.195C2286.49,321.028 2269.57,324.944 2250.74,324.945ZM2250.74,277.197C2258.07,277.197 2264.7,275.406 2270.61,271.823C2276.53,268.239 2281.24,263.156 2284.74,256.574C2288.24,249.991 2289.99,242.283 2289.99,233.45C2289.99,224.617 2288.24,216.909 2284.74,210.326C2281.24,203.743 2276.53,198.66 2270.61,195.077C2264.7,191.494 2258.07,189.702 2250.74,189.702C2243.41,189.702 2236.78,191.494 2230.87,195.077C2224.95,198.66 2220.24,203.743 2216.74,210.326C2213.24,216.909 2211.49,224.617 2211.49,233.45C2211.49,242.283 2213.24,249.991 2216.74,256.574C2220.24,263.156 2224.95,268.239 2230.87,271.823C2236.78,275.406 2243.41,277.197 2250.74,277.197Z" style="fill-rule:nonzero;"/>
                <path d="M2488.27,324.945C2469.44,324.944 2452.52,321.028 2437.52,313.195C2422.52,305.362 2410.77,294.488 2402.27,280.572C2393.77,266.656 2389.52,250.949 2389.52,233.45C2389.52,215.951 2393.77,200.243 2402.27,186.328C2410.77,172.412 2422.52,161.537 2437.52,153.705C2452.52,145.872 2469.44,141.955 2488.27,141.955C2507.1,141.955 2524.02,145.872 2539.02,153.705C2554.01,161.537 2565.76,172.412 2574.26,186.328C2582.76,200.243 2587.01,215.951 2587.01,233.45C2587.01,250.949 2582.76,266.656 2574.26,280.572C2565.76,294.488 2554.01,305.362 2539.02,313.195C2524.02,321.028 2507.1,324.944 2488.27,324.945ZM2488.27,277.197C2495.6,277.197 2502.23,275.406 2508.14,271.823C2514.06,268.239 2518.77,263.156 2522.27,256.574C2525.77,249.991 2527.52,242.283 2527.52,233.45C2527.52,224.617 2525.77,216.909 2522.27,210.326C2518.77,203.743 2514.06,198.66 2508.14,195.077C2502.23,191.494 2495.6,189.702 2488.27,189.702C2480.94,189.702 2474.31,191.494 2468.39,195.077C2462.48,198.66 2457.77,203.743 2454.27,210.326C2450.77,216.909 2449.02,224.617 2449.02,233.45C2449.02,242.283 2450.77,249.991 2454.27,256.574C2457.77,263.156 2462.48,268.239 2468.39,271.823C2474.31,275.406 2480.94,277.197 2488.27,277.197Z" style="fill-rule:nonzero;"/>
                <path d="M2634.05,145.955L2693.05,145.955L2693.05,275.197L2772.05,275.197L2772.05,320.945L2634.05,320.945L2634.05,145.955Z" style="fill-rule:nonzero;"/>
                <path d="M2953.83,229.45C2964.16,233.283 2972.16,238.866 2977.83,246.199C2983.49,253.532 2986.33,262.365 2986.33,272.698C2986.33,288.03 2979.99,299.904 2967.33,308.32C2954.66,316.737 2936.33,320.945 2912.33,320.945L2813.84,320.945L2813.84,145.955L2907.33,145.955C2930.66,145.955 2948.29,150.121 2960.2,158.454C2972.12,166.787 2978.08,177.87 2978.08,191.702C2978.08,199.868 2976.03,207.201 2971.95,213.701C2967.87,220.201 2961.83,225.45 2953.83,229.45ZM2871.83,187.203L2871.83,213.201L2899.33,213.201C2912.16,213.201 2918.58,208.868 2918.58,200.202C2918.58,191.536 2912.16,187.203 2899.33,187.203L2871.83,187.203ZM2907.33,279.697C2920.33,279.697 2926.83,275.114 2926.83,265.948C2926.83,256.782 2920.33,252.199 2907.33,252.199L2871.83,252.199L2871.83,279.697L2907.33,279.697Z" style="fill-rule:nonzero;"/>
                <path d="M3124.36,324.945C3105.53,324.944 3088.61,321.028 3073.62,313.195C3058.62,305.362 3046.87,294.488 3038.37,280.572C3029.87,266.656 3025.62,250.949 3025.62,233.45C3025.62,215.951 3029.87,200.243 3038.37,186.328C3046.87,172.412 3058.62,161.537 3073.62,153.705C3088.61,145.872 3105.53,141.955 3124.36,141.955C3143.19,141.955 3160.11,145.872 3175.11,153.705C3190.11,161.537 3201.86,172.412 3210.36,186.328C3218.86,200.243 3223.11,215.951 3223.11,233.45C3223.11,250.949 3218.86,266.656 3210.36,280.572C3201.86,294.488 3190.11,305.362 3175.11,313.195C3160.11,321.028 3143.19,324.944 3124.36,324.945ZM3124.36,277.197C3131.7,277.197 3138.32,275.406 3144.24,271.823C3150.15,268.239 3154.86,263.156 3158.36,256.574C3161.86,249.991 3163.61,242.283 3163.61,233.45C3163.61,224.617 3161.86,216.909 3158.36,210.326C3154.86,203.743 3150.15,198.66 3144.24,195.077C3138.32,191.494 3131.7,189.702 3124.36,189.702C3117.03,189.702 3110.4,191.494 3104.49,195.077C3098.57,198.66 3093.86,203.743 3090.36,210.326C3086.86,216.909 3085.11,224.617 3085.11,233.45C3085.11,242.283 3086.86,249.991 3090.36,256.574C3093.86,263.156 3098.57,268.239 3104.49,271.823C3110.4,275.406 3117.03,277.197 3124.36,277.197Z" style="fill-rule:nonzero;"/>
                <path d="M3374.64,320.945L3344.39,274.197L3314.89,320.945L3247.65,320.945L3310.89,232.7L3249.9,145.955L3316.14,145.955L3345.89,189.952L3374.89,145.955L3438.39,145.955L3377.64,230.45L3442.14,320.945L3374.64,320.945Z" style="fill-rule:nonzero;"/>
            </g>
        </g>
        <g transform="matrix(2.7,0,0,1.1,-2835,1193.59)">
            <g transform="matrix(0.234828,0,0,0.326625,1114.87,76.2053)">
                <path d="M737.203,796.504L264.045,796.504L264.045,323.346L737.203,323.346L737.203,796.504ZM327.133,434.677L327.133,685.173L674.116,685.173L674.116,434.677L327.133,434.677Z"/>
            </g>
        </g>
        <g transform="matrix(2.7,0,0,1.1,-2835,1193.59)">
            <g transform="matrix(0.469657,0,0,1.15279,997.312,-100.024)">
                <rect x="264.045" y="323.346" width="473.159" height="473.159" style="fill:rgb(255,225,0);"/>
                <path d="M737.203,796.504L264.045,796.504L264.045,323.346L737.203,323.346L737.203,796.504ZM319.247,378.548L319.247,741.303L682.002,741.303L682.002,378.548L319.247,378.548Z"/>
            </g>
        </g>
        <g transform="matrix(2.7,0,0,1.1,-2835,1193.59)">
            <g transform="matrix(0.518519,0,0,1.27273,409.008,-72.7273)">
                <path d="M1599.23,557.518C1568.94,566.345 1534.88,558.825 1511.01,534.959C1487.14,511.093 1479.63,477.031 1488.45,446.741L1543.84,502.129L1604.45,441.52L1549.06,386.131C1579.35,377.305 1613.41,384.824 1637.28,408.69C1661.15,432.556 1668.66,466.618 1659.84,496.909L1702.94,540.01L1642.33,600.619L1599.23,557.518Z"/>
            </g>
        </g>
    </g>
</svg>
