<?xml version="1.0" encoding="UTF-8" standalone="no"?>
<!DOCTYPE svg PUBLIC "-//W3C//DTD SVG 1.1//EN" "http://www.w3.org/Graphics/SVG/1.1/DTD/svg11.dtd">
<svg width="100%" height="100%" viewBox="0 0 2315 700" version="1.1" xmlns="http://www.w3.org/2000/svg" xmlns:xlink="http://www.w3.org/1999/xlink" xml:space="preserve" xmlns:serif="http://www.serif.com/" style="fill-rule:evenodd;clip-rule:evenodd;stroke-linejoin:round;stroke-miterlimit:1.41421;">
    <g transform="matrix(1,0,0,1,-192.57,-1393.59)">
        <g transform="matrix(2.7,0,0,1.1,-2835,1193.59)">
            <g transform="matrix(1.59674,0,0,0.67563,-1595.87,297.301)">
                <rect x="1866.53" y="391.732" width="371.738" height="379.223" style="fill:rgb(255,225,0);"/>
            </g>
        </g>
        <g transform="matrix(2.7,0,0,1.1,-2835,1193.59)">
            <g transform="matrix(0.643238,0,0,0.715113,523.409,288.395)">
                <g transform="matrix(0.384414,0,0,1,646.365,0)">
                    <path d="M1990.13,565.74L2036.51,565.634L2036.7,651.363C2036.74,670.37 2031.89,684.636 2022.14,694.162C2012.4,703.687 1998.09,708.471 1979.21,708.515C1968.31,708.539 1958.44,706.801 1949.59,703.299C1940.75,699.797 1933.46,694.663 1927.73,687.897L1952.98,657.934C1956.71,662.577 1960.37,666.025 1963.97,668.276C1967.56,670.528 1971.29,671.649 1975.14,671.64C1980.06,671.629 1983.81,670.158 1986.39,667.228C1988.98,664.298 1990.27,659.976 1990.25,654.26L1990.13,601.228L1990.13,565.74Z" style="fill-rule:nonzero;"/>
                </g>
                <g transform="matrix(0.306581,-0.0018184,0.00069902,0.797529,788.69,453.029)">
                    <path d="M2181.2,324.945C2166.7,324.944 2152.58,323.32 2138.83,320.07C2125.08,316.82 2113.79,312.445 2104.95,306.946L2123.95,263.948C2132.29,268.781 2141.62,272.656 2151.95,275.572C2162.28,278.489 2172.2,279.947 2181.7,279.947C2189.87,279.947 2195.7,279.156 2199.2,277.572C2202.7,275.989 2204.45,273.614 2204.45,270.448C2204.45,266.781 2202.16,264.031 2197.57,262.198C2192.99,260.365 2185.45,258.365 2174.95,256.199C2161.45,253.365 2150.2,250.324 2141.2,247.074C2132.2,243.824 2124.37,238.491 2117.7,231.075C2111.04,223.659 2107.7,213.618 2107.7,200.952C2107.7,189.952 2110.79,179.953 2116.95,170.954C2123.12,161.954 2132.33,154.871 2144.58,149.705C2156.83,144.538 2171.7,141.955 2189.2,141.955C2201.2,141.955 2212.99,143.247 2224.57,145.83C2236.16,148.413 2246.36,152.205 2255.2,157.204L2237.45,199.952C2220.28,191.286 2204.03,186.953 2188.7,186.953C2173.53,186.953 2165.95,190.619 2165.95,197.952C2165.95,201.452 2168.2,204.077 2172.7,205.826C2177.2,207.576 2184.62,209.451 2194.95,211.451C2208.28,213.951 2219.53,216.826 2228.7,220.076C2237.86,223.325 2245.82,228.617 2252.57,235.95C2259.32,243.283 2262.7,253.282 2262.7,265.948C2262.7,276.947 2259.61,286.905 2253.45,295.821C2247.28,304.737 2238.07,311.82 2225.82,317.07C2213.57,322.32 2198.7,324.944 2181.2,324.945Z" style="fill-rule:nonzero;"/>
                </g>
            </g>
        </g>
        <g transform="matrix(2.7,0,0,1.1,-2835,1193.59)">
            <g transform="matrix(1.32172,0,0,0.67563,-979.675,297.301)">
                <rect x="1866.53" y="391.732" width="371.738" height="379.223" style="fill:rgb(240,240,240);"/>
            </g>
        </g>
        <g transform="matrix(2.7,0,0,1.1,-2835,1193.59)">
            <g transform="matrix(1.59838,0,0,0.762717,-1598.92,-26.0539)">
                <rect x="1866.53" y="391.732" width="371.738" height="379.223"/>
            </g>
        </g>
        <g transform="matrix(2.7,0,0,1.1,-2835,1193.59)">
            <g transform="matrix(0.384785,0,0,0.944471,648.196,196.877)">
                <text x="1958.21px" y="320.945px" style="font-family:'Montserrat-Black', 'Montserrat';font-weight:900;font-size:249.985px;fill:white;">B<tspan x="2215.03px 2490.61px 2740.43px 2972.25px 3192.58px " y="320.945px 320.945px 320.945px 320.945px 320.945px ">ORELA</tspan></text>
            </g>
        </g>
        <g transform="matrix(2.7,0,0,1.1,-2835,1193.59)">
            <g transform="matrix(0.299633,0,0,0.735463,923.257,518.782)">
                <text x="1958.21px" y="320.945px" style="font-family:'Montserrat-Black', 'Montserrat';font-weight:900;font-size:249.985px;">T<tspan x="2144.74px 2382.28px 2619.8px 2799.59px 3018.37px 3249.65px " y="320.945px 320.945px 320.945px 320.945px 320.945px 320.945px ">OOLBOX</tspan></text>
            </g>
        </g>
        <g transform="matrix(2.7,0,0,1.1,-2835,1193.59)">
            <g transform="matrix(0.234828,0,0,0.326625,1114.87,76.2053)">
                <path d="M737.203,796.504L264.045,796.504L264.045,323.346L737.203,323.346L737.203,796.504ZM327.133,434.677L327.133,685.173L674.116,685.173L674.116,434.677L327.133,434.677Z"/>
            </g>
        </g>
        <g transform="matrix(2.7,0,0,1.1,-2835,1193.59)">
            <g transform="matrix(0.469657,0,0,1.15279,997.312,-100.024)">
                <rect x="264.045" y="323.346" width="473.159" height="473.159" style="fill:rgb(255,225,0);"/>
                <path d="M737.203,796.504L264.045,796.504L264.045,323.346L737.203,323.346L737.203,796.504ZM303.475,362.776L303.475,757.075L697.774,757.075L697.774,362.776L303.475,362.776Z"/>
            </g>
        </g>
        <g transform="matrix(2.7,0,0,1.1,-2835,1193.59)">
            <g transform="matrix(0.518519,0,0,1.27273,409.008,-72.7273)">
                <path d="M1599.23,557.518C1568.94,566.345 1534.88,558.825 1511.01,534.959C1487.14,511.093 1479.63,477.031 1488.45,446.741L1543.84,502.129L1604.45,441.52L1549.06,386.131C1579.35,377.305 1613.41,384.824 1637.28,408.69C1661.15,432.556 1668.66,466.618 1659.84,496.909L1702.94,540.01L1642.33,600.619L1599.23,557.518Z"/>
            </g>
        </g>
    </g>
</svg>
