<?xml version="1.0" encoding="UTF-8" standalone="no"?>
<!DOCTYPE svg PUBLIC "-//W3C//DTD SVG 1.1//EN" "http://www.w3.org/Graphics/SVG/1.1/DTD/svg11.dtd">
<svg width="100%" height="100%" viewBox="0 0 600 700" version="1.1" xmlns="http://www.w3.org/2000/svg" xmlns:xlink="http://www.w3.org/1999/xlink" xml:space="preserve" xmlns:serif="http://www.serif.com/" style="fill-rule:evenodd;clip-rule:evenodd;stroke-linejoin:round;stroke-miterlimit:1.41421;">
    <g transform="matrix(1,0,0,1,-206.111,-159.21)">
        <g transform="matrix(1,0,0,1,6.11082,0)">
            <g transform="matrix(0.634037,0,0,0.359288,182.586,43.036)">
                <path d="M737.203,796.504L264.045,796.504L264.045,323.346L737.203,323.346L737.203,796.504ZM327.133,434.677L327.133,685.173L674.116,685.173L674.116,434.677L327.133,434.677Z"/>
            </g>
        </g>
        <g transform="matrix(1,0,0,1,6.11082,0)">
            <g transform="matrix(1.26807,0,0,1.26807,-134.828,-150.816)">
                <rect x="264.045" y="323.346" width="473.159" height="473.159" style="fill:rgb(255,225,0);"/>
                <path d="M737.203,796.504L264.045,796.504L264.045,323.346L737.203,323.346L737.203,796.504ZM319.247,378.548L319.247,741.303L682.002,741.303L682.002,378.548L319.247,378.548Z"/>
            </g>
        </g>
        <g transform="matrix(1,0,0,1,6.11082,0)">
            <g transform="matrix(1.4,0,0,1.4,-1723.25,-120.79)">
                <path d="M1599.23,557.518C1568.94,566.345 1534.88,558.825 1511.01,534.959C1487.14,511.093 1479.63,477.031 1488.45,446.741L1543.84,502.129L1604.45,441.52L1549.06,386.131C1579.35,377.305 1613.41,384.824 1637.28,408.69C1661.15,432.556 1668.66,466.618 1659.84,496.909L1702.94,540.01L1642.33,600.619L1599.23,557.518Z"/>
                <path d="M1574.47,382.557L1574.84,382.559L1575.2,382.563L1575.57,382.568L1575.94,382.574L1576.3,382.583L1576.67,382.592L1577.04,382.603L1577.4,382.616L1577.77,382.63L1578.14,382.645L1578.5,382.662L1578.87,382.681L1579.24,382.701L1579.6,382.722L1579.97,382.745L1580.34,382.77L1580.7,382.796L1581.07,382.823L1581.43,382.852L1581.8,382.883L1582.17,382.915L1582.53,382.948L1582.9,382.983L1583.26,383.02L1583.63,383.058L1583.99,383.097L1584.36,383.138L1584.72,383.181L1585.09,383.225L1585.45,383.27L1585.82,383.317L1586.18,383.366L1586.55,383.416L1586.91,383.467L1587.27,383.52L1587.64,383.574L1588,383.63L1588.36,383.688L1588.73,383.747L1589.09,383.807L1589.45,383.869L1589.81,383.933L1590.18,383.998L1590.54,384.064L1590.9,384.132L1591.26,384.201L1591.62,384.272L1591.98,384.345L1592.34,384.418L1592.7,384.494L1593.07,384.571L1593.42,384.649L1593.79,384.729L1594.14,384.81L1594.5,384.893L1594.86,384.978L1595.22,385.064L1595.58,385.151L1595.94,385.24L1596.3,385.33L1596.65,385.422L1597.01,385.515L1597.37,385.61L1597.72,385.707L1598.08,385.804L1598.44,385.904L1598.79,386.005L1599.15,386.107L1599.5,386.211L1599.86,386.316L1600.21,386.423L1600.56,386.531L1600.92,386.641L1601.27,386.752L1601.62,386.865L1601.98,386.98L1602.33,387.095L1602.68,387.213L1603.03,387.331L1603.38,387.452L1603.73,387.574L1604.08,387.697L1604.43,387.822L1604.78,387.948L1605.13,388.076L1605.48,388.205L1605.83,388.336L1606.17,388.468L1606.52,388.602L1606.87,388.737L1607.21,388.874L1607.56,389.012L1607.9,389.152L1608.25,389.293L1608.59,389.436L1608.93,389.58L1609.28,389.726L1609.62,389.873L1609.96,390.022L1610.31,390.172L1610.65,390.324L1610.99,390.477L1611.33,390.632L1611.67,390.788L1612.01,390.946L1612.35,391.105L1612.68,391.265L1613.02,391.428L1613.36,391.591L1613.69,391.757L1614.03,391.923L1614.37,392.091L1614.7,392.261L1615.03,392.432L1615.37,392.605L1615.7,392.779L1616.03,392.955L1616.37,393.132L1616.7,393.311L1617.03,393.491L1617.36,393.672L1617.69,393.856L1618.02,394.04L1618.34,394.226L1618.67,394.414L1619,394.603L1619.33,394.794L1619.65,394.986L1619.98,395.18L1620.3,395.375L1620.62,395.571L1620.95,395.769L1621.27,395.969L1621.59,396.17L1621.91,396.373L1622.23,396.577L1622.55,396.782L1622.87,396.99L1623.19,397.198L1623.51,397.408L1623.83,397.62L1624.14,397.833L1624.46,398.048L1624.77,398.264L1625.09,398.481L1625.4,398.7L1625.71,398.921L1626.02,399.143L1626.34,399.366L1626.64,399.591L1626.95,399.818L1627.26,400.046L1627.57,400.276L1627.88,400.507L1628.19,400.739L1628.49,400.973L1628.8,401.209L1629.1,401.446L1629.4,401.684L1629.71,401.924L1630.01,402.166L1630.31,402.409L1630.61,402.653L1630.91,402.899L1631.21,403.147L1631.51,403.396L1631.8,403.646L1632.1,403.898L1632.39,404.152L1632.69,404.407L1632.98,404.663L1633.28,404.921L1633.57,405.181L1633.86,405.442L1634.15,405.704L1634.44,405.968L1634.73,406.234L1635.01,406.501L1635.3,406.769L1635.59,407.039L1635.87,407.31L1636.15,407.583L1636.44,407.858L1636.72,408.134L1637,408.411L1637.28,408.69L1637.56,408.97L1637.84,409.251L1638.11,409.533L1638.39,409.816L1638.66,410.1L1638.93,410.385L1639.2,410.67L1639.47,410.957L1639.74,411.244L1640,411.533L1640.27,411.822L1640.53,412.112L1640.79,412.403L1641.05,412.695L1641.31,412.988L1641.56,413.281L1641.82,413.575L1642.07,413.871L1642.32,414.167L1642.57,414.464L1642.82,414.762L1643.07,415.06L1643.32,415.36L1643.56,415.66L1643.8,415.961L1644.05,416.263L1644.29,416.565L1644.52,416.869L1644.76,417.173L1645,417.478L1645.23,417.784L1645.46,418.091L1645.69,418.398L1645.92,418.706L1646.15,419.015L1646.38,419.325L1646.6,419.635L1646.83,419.946L1647.05,420.258L1647.27,420.571L1647.49,420.884L1647.71,421.198L1647.92,421.513L1648.14,421.829L1648.35,422.145L1648.56,422.462L1648.77,422.78L1648.98,423.098L1649.19,423.417L1649.39,423.737L1649.6,424.057L1649.8,424.378L1650,424.7L1650.2,425.023L1650.4,425.346L1650.6,425.67L1650.79,425.994L1650.98,426.319L1651.18,426.645L1651.37,426.971L1651.56,427.298L1651.74,427.626L1651.93,427.954L1652.11,428.283L1652.3,428.613L1652.48,428.943L1652.66,429.273L1652.84,429.605L1653.02,429.937L1653.19,430.269L1653.37,430.602L1653.54,430.936L1653.71,431.27L1653.88,431.605L1654.05,431.94L1654.21,432.276L1654.38,432.613L1654.54,432.95L1654.7,433.287L1654.87,433.625L1655.02,433.964L1655.18,434.303L1655.34,434.643L1655.49,434.983L1655.65,435.324L1655.8,435.665L1655.95,436.007L1656.1,436.349L1656.24,436.692L1656.39,437.035L1656.53,437.379L1656.68,437.723L1656.82,438.067L1656.96,438.413L1657.1,438.758L1657.23,439.104L1657.37,439.451L1657.5,439.798L1657.63,440.145L1657.77,440.493L1657.89,440.841L1658.02,441.19L1658.15,441.539L1658.27,441.888L1658.4,442.238L1658.52,442.589L1658.64,442.94L1658.76,443.291L1658.87,443.642L1658.99,443.994L1659.11,444.347L1659.22,444.699L1659.33,445.052L1659.44,445.406L1659.55,445.76L1659.65,446.114L1659.76,446.468L1659.86,446.823L1659.97,447.178L1660.07,447.534L1660.16,447.89L1660.26,448.246L1660.36,448.603L1660.45,448.96L1660.55,449.317L1660.64,449.674L1660.73,450.032L1660.82,450.39L1660.91,450.749L1660.99,451.107L1661.08,451.466L1661.16,451.825L1661.24,452.185L1661.32,452.545L1661.4,452.905L1661.48,453.265L1661.55,453.626L1661.63,453.986L1661.7,454.347L1661.77,454.709L1661.84,455.07L1661.91,455.432L1661.97,455.794L1662.04,456.156L1662.1,456.519L1662.16,456.881L1662.22,457.244L1662.28,457.607L1662.34,457.97L1662.39,458.334L1662.45,458.697L1662.5,459.061L1662.55,459.425L1662.6,459.789L1662.65,460.154L1662.7,460.518L1662.75,460.883L1662.79,461.247L1662.83,461.612L1662.87,461.977L1662.91,462.342L1662.95,462.708L1662.99,463.073L1663.02,463.439L1663.06,463.804L1663.09,464.17L1663.12,464.536L1663.15,464.902L1663.17,465.268L1663.2,465.634L1663.22,466L1663.25,466.367L1663.27,466.733L1663.29,467.099L1663.31,467.466L1663.33,467.833L1663.34,468.199L1663.35,468.566L1663.37,468.933L1663.38,469.299L1663.39,469.666L1663.39,470.033L1663.4,470.4L1663.41,470.767L1663.41,471.134L1663.41,471.501L1663.41,471.867L1663.41,472.234L1663.41,472.601L1663.41,472.968L1663.4,473.335L1663.39,473.702L1663.38,474.069L1663.38,474.435L1663.36,474.802L1663.35,475.169L1663.34,475.536L1663.32,475.902L1663.3,476.269L1663.28,476.635L1663.26,477.002L1663.24,477.368L1663.22,477.734L1663.19,478.101L1663.17,478.467L1663.14,478.833L1663.11,479.199L1663.08,479.565L1663.05,479.93L1663.01,480.296L1662.98,480.661L1662.94,481.027L1662.9,481.392L1662.86,481.757L1662.82,482.122L1662.78,482.487L1662.73,482.852L1662.69,483.216L1662.64,483.581L1662.59,483.945L1662.54,484.309L1662.49,484.673L1662.44,485.037L1662.38,485.4L1662.33,485.764L1662.27,486.127L1662.21,486.49L1662.15,486.853L1662.09,487.215L1662.02,487.578L1661.96,487.94L1661.89,488.302L1661.82,488.663L1661.75,489.025L1661.68,489.386L1661.61,489.747L1661.53,490.108L1661.46,490.468L1661.38,490.829L1661.3,491.188L1661.22,491.548L1661.14,491.908L1661.06,492.267L1660.97,492.626L1660.89,492.984L1660.8,493.343L1660.71,493.701L1660.62,494.058L1660.53,494.416L1660.43,494.773L1660.34,495.13L1660.24,495.486L1660.14,495.842L1660.04,496.198L1659.94,496.554L1659.84,496.909L1702.94,540.01L1642.33,600.619L1599.23,557.518L1598.87,557.621L1598.52,557.722L1598.16,557.822L1597.81,557.92L1597.45,558.016L1597.09,558.112L1596.74,558.205L1596.38,558.298L1596.02,558.388L1595.66,558.478L1595.31,558.565L1594.95,558.652L1594.59,558.736L1594.23,558.819L1593.87,558.901L1593.51,558.981L1593.15,559.06L1592.79,559.137L1592.43,559.213L1592.07,559.287L1591.71,559.36L1591.35,559.431L1590.98,559.501L1590.62,559.57L1590.26,559.636L1589.9,559.702L1589.54,559.765L1589.17,559.828L1588.81,559.888L1588.45,559.948L1588.08,560.006L1587.72,560.062L1587.36,560.117L1586.99,560.17L1586.63,560.222L1586.27,560.272L1585.9,560.321L1585.54,560.368L1585.17,560.414L1584.81,560.458L1584.44,560.501L1584.08,560.542L1583.71,560.582L1583.35,560.621L1582.98,560.657L1582.62,560.693L1582.25,560.727L1581.88,560.759L1581.52,560.79L1581.15,560.819L1580.79,560.847L1580.42,560.873L1580.06,560.898L1579.69,560.922L1579.32,560.944L1578.96,560.964L1578.59,560.983L1578.22,561L1577.86,561.016L1577.49,561.031L1577.12,561.043L1576.76,561.055L1576.39,561.065L1576.02,561.073L1575.65,561.08L1575.29,561.085L1574.92,561.089L1574.56,561.092L1574.19,561.093L1573.82,561.092L1573.45,561.09L1573.09,561.087L1572.72,561.081L1572.35,561.075L1571.99,561.067L1571.62,561.057L1571.25,561.046L1570.89,561.034L1570.52,561.02L1570.15,561.004L1569.79,560.987L1569.42,560.969L1569.05,560.949L1568.69,560.927L1568.32,560.904L1567.95,560.879L1567.59,560.853L1567.22,560.826L1566.86,560.797L1566.49,560.766L1566.13,560.734L1565.76,560.701L1565.39,560.666L1565.03,560.629L1564.66,560.592L1564.3,560.552L1563.93,560.511L1563.57,560.469L1563.2,560.425L1562.84,560.379L1562.47,560.332L1562.11,560.284L1561.75,560.234L1561.38,560.182L1561.02,560.129L1560.65,560.075L1560.29,560.019L1559.93,559.962L1559.57,559.903L1559.2,559.842L1558.84,559.78L1558.48,559.717L1558.12,559.652L1557.75,559.585L1557.39,559.518L1557.03,559.448L1556.67,559.377L1556.31,559.305L1555.95,559.231L1555.59,559.155L1555.23,559.079L1554.87,559L1554.51,558.92L1554.15,558.839L1553.79,558.756L1553.43,558.672L1553.07,558.586L1552.71,558.498L1552.35,558.41L1552,558.319L1551.64,558.227L1551.28,558.134L1550.92,558.039L1550.57,557.943L1550.21,557.845L1549.85,557.746L1549.5,557.645L1549.14,557.542L1548.79,557.439L1548.43,557.333L1548.08,557.226L1547.73,557.118L1547.37,557.008L1547.02,556.897L1546.67,556.784L1546.32,556.67L1545.96,556.554L1545.61,556.437L1545.26,556.318L1544.91,556.198L1544.56,556.076L1544.21,555.953L1543.86,555.828L1543.51,555.701L1543.16,555.574L1542.81,555.444L1542.47,555.314L1542.12,555.181L1541.77,555.048L1541.42,554.912L1541.08,554.776L1540.73,554.637L1540.39,554.498L1540.04,554.356L1539.7,554.214L1539.36,554.069L1539.01,553.924L1538.67,553.776L1538.33,553.628L1537.99,553.477L1537.64,553.326L1537.3,553.172L1536.96,553.018L1536.62,552.862L1536.28,552.704L1535.95,552.545L1535.61,552.384L1535.27,552.222L1534.93,552.058L1534.6,551.893L1534.26,551.726L1533.92,551.558L1533.59,551.388L1533.26,551.217L1532.92,551.044L1532.59,550.87L1532.26,550.695L1531.92,550.517L1531.59,550.339L1531.26,550.159L1530.93,549.977L1530.6,549.794L1530.28,549.609L1529.95,549.423L1529.62,549.235L1529.29,549.046L1528.96,548.856L1528.64,548.663L1528.32,548.47L1527.99,548.275L1527.67,548.078L1527.34,547.88L1527.02,547.68L1526.7,547.479L1526.38,547.277L1526.06,547.072L1525.74,546.867L1525.42,546.66L1525.1,546.451L1524.78,546.241L1524.46,546.03L1524.15,545.816L1523.83,545.602L1523.52,545.386L1523.2,545.168L1522.89,544.949L1522.58,544.729L1522.27,544.507L1521.96,544.283L1521.64,544.058L1521.34,543.831L1521.03,543.603L1520.72,543.374L1520.41,543.143L1520.1,542.91L1519.8,542.676L1519.49,542.441L1519.19,542.204L1518.89,541.965L1518.58,541.725L1518.28,541.484L1517.98,541.241L1517.68,540.996L1517.38,540.75L1517.08,540.502L1516.78,540.253L1516.49,540.003L1516.19,539.751L1515.9,539.498L1515.6,539.243L1515.31,538.986L1515.02,538.728L1514.72,538.469L1514.43,538.208L1514.14,537.945L1513.85,537.681L1513.57,537.416L1513.28,537.149L1512.99,536.88L1512.7,536.61L1512.42,536.339L1512.14,536.066L1511.85,535.792L1511.57,535.516L1511.29,535.238L1511.01,534.959L1510.73,534.679L1510.45,534.398L1510.18,534.116L1509.9,533.833L1509.63,533.549L1509.36,533.265L1509.09,532.979L1508.82,532.692L1508.55,532.405L1508.29,532.117L1508.03,531.827L1507.76,531.537L1507.5,531.246L1507.24,530.955L1506.98,530.662L1506.73,530.368L1506.47,530.074L1506.22,529.779L1505.97,529.483L1505.72,529.186L1505.47,528.888L1505.22,528.589L1504.97,528.29L1504.73,527.99L1504.49,527.689L1504.25,527.387L1504.01,527.084L1503.77,526.781L1503.53,526.476L1503.29,526.171L1503.06,525.865L1502.83,525.559L1502.6,525.251L1502.37,524.943L1502.14,524.634L1501.91,524.325L1501.69,524.014L1501.46,523.703L1501.24,523.391L1501.02,523.079L1500.8,522.765L1500.58,522.451L1500.37,522.136L1500.15,521.821L1499.94,521.504L1499.73,521.187L1499.52,520.87L1499.31,520.551L1499.1,520.232L1498.9,519.913L1498.69,519.592L1498.49,519.271L1498.29,518.949L1498.09,518.627L1497.89,518.304L1497.69,517.98L1497.5,517.655L1497.31,517.33L1497.11,517.004L1496.92,516.678L1496.74,516.351L1496.55,516.023L1496.36,515.695L1496.18,515.366L1495.99,515.037L1495.81,514.707L1495.63,514.376L1495.45,514.045L1495.28,513.713L1495.1,513.38L1494.92,513.047L1494.75,512.714L1494.58,512.379L1494.41,512.045L1494.24,511.709L1494.08,511.373L1493.91,511.037L1493.75,510.7L1493.59,510.362L1493.42,510.024L1493.27,509.685L1493.11,509.346L1492.95,509.007L1492.8,508.666L1492.64,508.326L1492.49,507.984L1492.34,507.643L1492.19,507.3L1492.05,506.958L1491.9,506.614L1491.76,506.271L1491.61,505.927L1491.47,505.582L1491.33,505.237L1491.19,504.891L1491.06,504.545L1490.92,504.199L1490.79,503.852L1490.66,503.504L1490.53,503.157L1490.4,502.808L1490.27,502.46L1490.14,502.11L1490.02,501.761L1489.89,501.411L1489.77,501.061L1489.65,500.71L1489.53,500.359L1489.42,500.007L1489.3,499.655L1489.19,499.303L1489.07,498.95L1488.96,498.597L1488.85,498.244L1488.74,497.89L1488.64,497.536L1488.53,497.181L1488.43,496.826L1488.33,496.471L1488.22,496.115L1488.13,495.759L1488.03,495.403L1487.93,495.047L1487.84,494.69L1487.74,494.333L1487.65,493.975L1487.56,493.617L1487.47,493.259L1487.38,492.901L1487.3,492.542L1487.21,492.183L1487.13,491.824L1487.05,491.464L1486.97,491.105L1486.89,490.745L1486.81,490.384L1486.74,490.024L1486.66,489.663L1486.59,489.302L1486.52,488.941L1486.45,488.579L1486.38,488.217L1486.32,487.855L1486.25,487.493L1486.19,487.131L1486.13,486.768L1486.07,486.405L1486.01,486.042L1485.95,485.679L1485.89,485.316L1485.84,484.952L1485.79,484.588L1485.74,484.224L1485.69,483.86L1485.64,483.496L1485.59,483.131L1485.55,482.767L1485.5,482.402L1485.46,482.037L1485.42,481.672L1485.38,481.307L1485.34,480.942L1485.3,480.576L1485.27,480.211L1485.24,479.845L1485.2,479.479L1485.17,479.113L1485.14,478.747L1485.12,478.381L1485.09,478.015L1485.07,477.649L1485.04,477.283L1485.02,476.916L1485,476.55L1484.98,476.183L1484.97,475.817L1484.95,475.45L1484.94,475.083L1484.92,474.717L1484.91,474.35L1484.9,473.983L1484.89,473.616L1484.89,473.25L1484.88,472.883L1484.88,472.516L1484.88,472.149L1484.88,471.782L1484.88,471.415L1484.88,471.048L1484.88,470.681L1484.89,470.314L1484.9,469.948L1484.9,469.581L1484.91,469.214L1484.93,468.847L1484.94,468.48L1484.95,468.114L1484.97,467.747L1484.99,467.381L1485.01,467.014L1485.03,466.648L1485.05,466.281L1485.07,465.915L1485.1,465.549L1485.12,465.183L1485.15,464.817L1485.18,464.451L1485.21,464.085L1485.24,463.719L1485.28,463.353L1485.31,462.988L1485.35,462.623L1485.39,462.257L1485.43,461.892L1485.47,461.527L1485.51,461.162L1485.56,460.798L1485.6,460.433L1485.65,460.069L1485.7,459.704L1485.75,459.34L1485.8,458.976L1485.85,458.613L1485.91,458.249L1485.96,457.886L1486.02,457.523L1486.08,457.16L1486.14,456.797L1486.2,456.434L1486.27,456.072L1486.33,455.71L1486.4,455.348L1486.47,454.986L1486.54,454.625L1486.61,454.263L1486.68,453.902L1486.76,453.542L1486.83,453.181L1486.91,452.821L1486.99,452.461L1487.07,452.101L1487.15,451.742L1487.23,451.383L1487.32,451.024L1487.4,450.665L1487.49,450.307L1487.58,449.949L1487.67,449.591L1487.76,449.234L1487.86,448.876L1487.95,448.52L1488.05,448.163L1488.15,447.807L1488.25,447.451L1488.35,447.096L1488.45,446.741L1543.84,502.129L1604.45,441.52L1549.06,386.131L1549.42,386.029L1549.77,385.928L1550.13,385.828L1550.48,385.73L1550.84,385.633L1551.2,385.538L1551.55,385.444L1551.91,385.352L1552.27,385.261L1552.63,385.172L1552.99,385.084L1553.34,384.998L1553.7,384.913L1554.06,384.83L1554.42,384.748L1554.78,384.668L1555.14,384.589L1555.5,384.512L1555.86,384.436L1556.22,384.362L1556.58,384.289L1556.94,384.218L1557.31,384.148L1557.67,384.08L1558.03,384.013L1558.39,383.948L1558.76,383.884L1559.12,383.822L1559.48,383.761L1559.84,383.702L1560.21,383.644L1560.57,383.588L1560.93,383.533L1561.3,383.479L1561.66,383.428L1562.03,383.377L1562.39,383.329L1562.75,383.281L1563.12,383.235L1563.48,383.191L1563.85,383.148L1564.21,383.107L1564.58,383.067L1564.94,383.029L1565.31,382.992L1565.67,382.957L1566.04,382.923L1566.4,382.89L1566.77,382.859L1567.14,382.83L1567.5,382.802L1567.87,382.776L1568.24,382.751L1568.6,382.728L1568.97,382.706L1569.34,382.685L1569.7,382.667L1570.07,382.649L1570.43,382.633L1570.8,382.619L1571.17,382.606L1571.53,382.595L1571.9,382.585L1572.27,382.576L1572.63,382.569L1573,382.564L1573.37,382.56L1573.74,382.558L1574.1,382.557L1574.47,382.557ZM1629.91,454.491L1627.57,458.314L1624.65,461.723L1564.04,522.332L1560.63,525.244L1556.81,527.587L1553.53,528.944L1553.76,529.024L1554,529.108L1554.23,529.191L1554.47,529.272L1554.71,529.353L1554.95,529.433L1555.19,529.512L1555.43,529.589L1555.67,529.665L1555.91,529.741L1556.15,529.816L1556.39,529.889L1556.63,529.962L1556.87,530.034L1557.11,530.104L1557.35,530.173L1557.59,530.242L1557.84,530.31L1558.08,530.376L1558.32,530.442L1558.56,530.506L1558.81,530.57L1559.05,530.632L1559.29,530.693L1559.54,530.754L1559.78,530.813L1560.02,530.872L1560.27,530.929L1560.51,530.986L1560.76,531.041L1561,531.095L1561.25,531.149L1561.49,531.201L1561.74,531.252L1561.98,531.303L1562.23,531.352L1562.48,531.4L1562.72,531.448L1562.97,531.494L1563.21,531.539L1563.46,531.583L1563.71,531.627L1563.95,531.669L1564.2,531.71L1564.45,531.75L1564.69,531.789L1564.94,531.827L1565.19,531.864L1565.44,531.9L1565.69,531.935L1565.94,531.97L1566.18,532.003L1566.43,532.035L1566.68,532.066L1566.93,532.096L1567.18,532.124L1567.43,532.152L1567.68,532.179L1567.93,532.205L1568.17,532.23L1568.42,532.254L1568.67,532.277L1568.92,532.299L1569.17,532.319L1569.42,532.339L1569.67,532.358L1569.92,532.376L1570.17,532.393L1570.42,532.408L1570.67,532.423L1570.92,532.437L1571.17,532.449L1571.42,532.461L1571.67,532.471L1571.92,532.481L1572.17,532.49L1572.42,532.497L1572.67,532.504L1572.92,532.509L1573.17,532.514L1573.42,532.517L1573.67,532.519L1573.92,532.521L1574.17,532.521L1574.42,532.521L1574.67,532.519L1574.92,532.516L1575.17,532.513L1575.43,532.508L1575.68,532.502L1575.93,532.495L1576.18,532.488L1576.43,532.479L1576.68,532.469L1576.93,532.458L1577.18,532.446L1577.43,532.433L1577.68,532.419L1577.93,532.405L1578.18,532.389L1578.43,532.372L1578.68,532.354L1578.93,532.335L1579.17,532.315L1579.42,532.294L1579.68,532.271L1579.92,532.248L1580.17,532.224L1580.42,532.199L1580.67,532.173L1580.92,532.146L1581.17,532.118L1581.42,532.089L1581.67,532.058L1581.91,532.027L1582.16,531.995L1582.41,531.961L1582.66,531.927L1582.91,531.892L1583.16,531.855L1583.4,531.818L1583.65,531.78L1583.9,531.74L1584.14,531.7L1584.39,531.659L1584.64,531.616L1584.89,531.573L1585.13,531.528L1585.38,531.483L1585.63,531.437L1585.87,531.389L1586.12,531.34L1586.37,531.291L1586.61,531.24L1586.86,531.189L1587.1,531.136L1587.35,531.083L1587.59,531.028L1587.84,530.972L1588.08,530.916L1588.33,530.858L1588.57,530.799L1588.81,530.74L1589.06,530.679L1589.3,530.617L1589.54,530.555L1589.78,530.491L1590.03,530.426L1590.27,530.36L1590.51,530.294L1590.75,530.226L1590.99,530.157L1591.29,530.071L1595.55,529.184L1599.89,528.954L1604.22,529.387L1608.44,530.471L1612.44,532.183L1616.13,534.482L1619.43,537.315L1642.33,560.213L1662.53,540.01L1639.63,517.112L1636.8,513.811L1634.5,510.118L1632.79,506.119L1631.71,501.906L1631.28,497.577L1631.5,493.233L1632.39,488.975L1632.48,488.674L1632.55,488.432L1632.61,488.191L1632.68,487.948L1632.75,487.706L1632.81,487.463L1632.88,487.221L1632.94,486.978L1633,486.735L1633.06,486.492L1633.12,486.248L1633.18,486.003L1633.24,485.759L1633.29,485.515L1633.35,485.269L1633.4,485.025L1633.46,484.781L1633.51,484.536L1633.56,484.29L1633.61,484.043L1633.66,483.8L1633.71,483.552L1633.76,483.305L1633.8,483.061L1633.85,482.815L1633.89,482.567L1633.94,482.32L1633.98,482.073L1634.02,481.826L1634.06,481.578L1634.1,481.331L1634.14,481.084L1634.18,480.836L1634.21,480.588L1634.25,480.339L1634.28,480.091L1634.32,479.844L1634.35,479.594L1634.38,479.348L1634.41,479.098L1634.44,478.848L1634.47,478.6L1634.49,478.352L1634.52,478.103L1634.55,477.853L1634.57,477.604L1634.59,477.355L1634.61,477.105L1634.63,476.854L1634.65,476.605L1634.67,476.358L1634.69,476.107L1634.71,475.856L1634.73,475.607L1634.74,475.357L1634.75,475.108L1634.77,474.857L1634.78,474.606L1634.79,474.356L1634.8,474.106L1634.81,473.857L1634.82,473.607L1634.82,473.356L1634.83,473.104L1634.83,472.855L1634.84,472.605L1634.84,472.355L1634.84,472.104L1634.84,471.852L1634.84,471.604L1634.84,471.354L1634.84,471.103L1634.83,470.851L1634.83,470.602L1634.82,470.352L1634.82,470.1L1634.81,469.851L1634.8,469.601L1634.79,469.352L1634.78,469.1L1634.77,468.849L1634.76,468.601L1634.74,468.35L1634.73,468.099L1634.71,467.852L1634.7,467.601L1634.68,467.35L1634.66,467.102L1634.64,466.852L1634.62,466.601L1634.6,466.354L1634.57,466.103L1634.55,465.853L1634.53,465.606L1634.5,465.356L1634.47,465.106L1634.44,464.859L1634.42,464.609L1634.39,464.359L1634.36,464.111L1634.32,463.863L1634.29,463.616L1634.26,463.367L1634.22,463.119L1634.18,462.872L1634.15,462.623L1634.11,462.374L1634.07,462.127L1634.03,461.882L1633.99,461.634L1633.95,461.386L1633.9,461.139L1633.86,460.893L1633.81,460.646L1633.77,460.4L1633.72,460.154L1633.67,459.907L1633.62,459.662L1633.57,459.417L1633.52,459.17L1633.47,458.926L1633.42,458.681L1633.36,458.435L1633.31,458.191L1633.25,457.946L1633.19,457.702L1633.13,457.459L1633.08,457.215L1633.01,456.972L1632.95,456.728L1632.89,456.484L1632.83,456.241L1632.76,456L1632.7,455.756L1632.63,455.514L1632.56,455.273L1632.49,455.03L1632.42,454.79L1632.35,454.549L1632.28,454.309L1632.21,454.067L1632.14,453.826L1632.06,453.588L1631.99,453.347L1631.91,453.106L1631.83,452.869L1631.75,452.629L1631.67,452.39L1631.59,452.153L1631.51,451.914L1631.43,451.675L1631.35,451.438L1631.27,451.214L1629.91,454.491Z"/>
            </g>
        </g>
    </g>
</svg>
