<?xml version="1.0" encoding="UTF-8" standalone="no"?>
<!DOCTYPE svg PUBLIC "-//W3C//DTD SVG 1.1//EN" "http://www.w3.org/Graphics/SVG/1.1/DTD/svg11.dtd">
<svg width="100%" height="100%" viewBox="0 0 1000 1000" version="1.1" xmlns="http://www.w3.org/2000/svg" xmlns:xlink="http://www.w3.org/1999/xlink" xml:space="preserve" xmlns:serif="http://www.serif.com/" style="fill-rule:evenodd;clip-rule:evenodd;stroke-linejoin:round;stroke-miterlimit:1.41421;">
    <g transform="matrix(0.18568,0,0,1.09631,158.457,-239.788)">
        <rect x="191.044" y="671.629" width="611.735" height="103.62"/>
    </g>
    <g transform="matrix(1,0,0,1,-4.64707,-0.561843)">
        <path d="M259.461,559.949L266.478,559.949L266.478,584.994C266.478,589.42 265.399,592.74 263.24,594.953C261.081,597.166 257.914,598.273 253.74,598.273C251.329,598.273 249.106,597.796 247.073,596.842C245.04,595.889 243.376,594.548 242.08,592.821L246.075,588.017C248.162,590.896 250.663,592.335 253.578,592.335C257.5,592.335 259.461,590.014 259.461,585.372L259.461,559.949Z" style="fill:rgb(255,225,0);fill-rule:nonzero;"/>
        <g transform="matrix(4.49816,0,0,4.49816,-498.488,-705.105)">
            <path d="M173.856,289.758C173.208,289.758 172.582,289.666 171.978,289.482C171.374,289.298 170.896,289.054 170.544,288.75L171.084,287.538C171.428,287.81 171.85,288.032 172.35,288.204C172.85,288.376 173.352,288.462 173.856,288.462C174.48,288.462 174.946,288.362 175.254,288.162C175.562,287.962 175.716,287.698 175.716,287.37C175.716,287.13 175.63,286.932 175.458,286.776C175.286,286.62 175.068,286.498 174.804,286.41C174.54,286.322 174.18,286.222 173.724,286.11C173.084,285.958 172.566,285.806 172.17,285.654C171.774,285.502 171.434,285.264 171.15,284.94C170.866,284.616 170.724,284.178 170.724,283.626C170.724,283.162 170.85,282.74 171.102,282.36C171.354,281.98 171.734,281.678 172.242,281.454C172.75,281.23 173.372,281.118 174.108,281.118C174.62,281.118 175.124,281.182 175.62,281.31C176.116,281.438 176.544,281.622 176.904,281.862L176.412,283.074C176.044,282.858 175.66,282.694 175.26,282.582C174.86,282.47 174.472,282.414 174.096,282.414C173.48,282.414 173.022,282.518 172.722,282.726C172.422,282.934 172.272,283.21 172.272,283.554C172.272,283.794 172.358,283.99 172.53,284.142C172.702,284.294 172.92,284.414 173.184,284.502C173.448,284.59 173.808,284.69 174.264,284.802C174.888,284.946 175.4,285.096 175.8,285.252C176.2,285.408 176.542,285.646 176.826,285.966C177.11,286.286 177.252,286.718 177.252,287.262C177.252,287.726 177.126,288.146 176.874,288.522C176.622,288.898 176.24,289.198 175.728,289.422C175.216,289.646 174.592,289.758 173.856,289.758Z" style="fill:rgb(255,225,0);fill-rule:nonzero;"/>
        </g>
    </g>
    <g transform="matrix(0.81498,0,0,1.09631,151.821,-239.788)">
        <rect x="191.044" y="671.629" width="611.735" height="103.62" style="fill:rgb(255,225,0);"/>
    </g>
    <g transform="matrix(6.05626,0,0,6.05626,-658.934,-1175.6)">
        <text x="164.794px" y="289.638px" style="font-family:'Montserrat-Black', 'Montserrat';font-weight:900;font-size:11.889px;fill:rgb(159,120,0);">T<tspan x="173.877px 185.385px 196.893px 205.655px 216.271px 227.482px " y="289.638px 289.638px 289.638px 289.638px 289.638px 289.638px ">OOLBOX</tspan></text>
    </g>
    <g transform="matrix(0.81498,0,0,1.09631,151.821,-353.388)">
        <rect x="191.044" y="671.629" width="611.735" height="103.62" style="fill:rgb(246,246,246);"/>
    </g>
    <g transform="matrix(8.2357,0,0,8.2357,-1021.91,-1920.45)">
        <text x="164.794px" y="289.638px" style="font-family:'Montserrat-Black', 'Montserrat';font-weight:900;font-size:8.742px;fill:rgb(167,167,167);">B<tspan x="174.346px 184.553px 193.86px 202.537px 210.813px " y="289.638px 289.638px 289.638px 289.638px 289.638px ">ORELA</tspan></text>
    </g>
</svg>
