<?xml version="1.0" encoding="UTF-8" standalone="no"?>
<!DOCTYPE svg PUBLIC "-//W3C//DTD SVG 1.1//EN" "http://www.w3.org/Graphics/SVG/1.1/DTD/svg11.dtd">
<svg width="100%" height="100%" viewBox="0 0 307 114" version="1.1" xmlns="http://www.w3.org/2000/svg" xmlns:xlink="http://www.w3.org/1999/xlink" xml:space="preserve" xmlns:serif="http://www.serif.com/" style="fill-rule:evenodd;clip-rule:evenodd;stroke-linejoin:round;stroke-miterlimit:1.41421;">
    <g transform="matrix(1,0,0,1,-96.9652,-191.462)">
        <g transform="matrix(0.0928402,0,0,0.548154,79.2287,-119.894)">
            <rect x="191.044" y="671.629" width="611.735" height="103.62"/>
        </g>
        <g transform="matrix(0.5,0,0,0.5,-2.32353,-0.280922)">
            <path d="M259.461,559.949L266.478,559.949L266.478,584.994C266.478,589.42 265.399,592.74 263.24,594.953C261.081,597.166 257.914,598.273 253.74,598.273C251.329,598.273 249.106,597.796 247.073,596.842C245.04,595.889 243.376,594.548 242.08,592.821L246.075,588.017C248.162,590.896 250.663,592.335 253.578,592.335C257.5,592.335 259.461,590.014 259.461,585.372L259.461,559.949Z" style="fill:rgb(255,225,0);fill-rule:nonzero;"/>
            <g transform="matrix(4.49816,0,0,4.49816,-498.488,-705.105)">
                <path d="M173.856,289.758C173.208,289.758 172.582,289.666 171.978,289.482C171.374,289.298 170.896,289.054 170.544,288.75L171.084,287.538C171.428,287.81 171.85,288.032 172.35,288.204C172.85,288.376 173.352,288.462 173.856,288.462C174.48,288.462 174.946,288.362 175.254,288.162C175.562,287.962 175.716,287.698 175.716,287.37C175.716,287.13 175.63,286.932 175.458,286.776C175.286,286.62 175.068,286.498 174.804,286.41C174.54,286.322 174.18,286.222 173.724,286.11C173.084,285.958 172.566,285.806 172.17,285.654C171.774,285.502 171.434,285.264 171.15,284.94C170.866,284.616 170.724,284.178 170.724,283.626C170.724,283.162 170.85,282.74 171.102,282.36C171.354,281.98 171.734,281.678 172.242,281.454C172.75,281.23 173.372,281.118 174.108,281.118C174.62,281.118 175.124,281.182 175.62,281.31C176.116,281.438 176.544,281.622 176.904,281.862L176.412,283.074C176.044,282.858 175.66,282.694 175.26,282.582C174.86,282.47 174.472,282.414 174.096,282.414C173.48,282.414 173.022,282.518 172.722,282.726C172.422,282.934 172.272,283.21 172.272,283.554C172.272,283.794 172.358,283.99 172.53,284.142C172.702,284.294 172.92,284.414 173.184,284.502C173.448,284.59 173.808,284.69 174.264,284.802C174.888,284.946 175.4,285.096 175.8,285.252C176.2,285.408 176.542,285.646 176.826,285.966C177.11,286.286 177.252,286.718 177.252,287.262C177.252,287.726 177.126,288.146 176.874,288.522C176.622,288.898 176.24,289.198 175.728,289.422C175.216,289.646 174.592,289.758 173.856,289.758Z" style="fill:rgb(255,225,0);fill-rule:nonzero;"/>
            </g>
        </g>
        <g transform="matrix(0.40749,0,0,0.548154,75.9103,-119.894)">
            <rect x="191.044" y="671.629" width="611.735" height="103.62" style="fill:rgb(255,225,0);"/>
        </g>
        <g transform="matrix(3.02813,0,0,3.02813,-329.467,-587.8)">
            <path d="M167.279,283.492L164.842,283.492L164.842,281.316L172.522,281.316L172.522,283.492L170.084,283.492L170.084,289.638L167.279,289.638L167.279,283.492Z" style="fill:rgb(159,120,0);fill-rule:nonzero;"/>
            <path d="M178.918,289.828C178.022,289.828 177.218,289.642 176.504,289.269C175.791,288.897 175.232,288.38 174.828,287.718C174.424,287.056 174.222,286.309 174.222,285.477C174.222,284.645 174.424,283.898 174.828,283.236C175.232,282.574 175.791,282.057 176.504,281.685C177.218,281.312 178.022,281.126 178.918,281.126C179.813,281.126 180.618,281.312 181.331,281.685C182.044,282.057 182.603,282.574 183.007,283.236C183.411,283.898 183.614,284.645 183.614,285.477C183.614,286.309 183.411,287.056 183.007,287.718C182.603,288.38 182.044,288.897 181.331,289.269C180.618,289.642 179.813,289.828 178.918,289.828ZM178.918,287.557C179.266,287.557 179.581,287.472 179.863,287.302C180.144,287.131 180.368,286.89 180.534,286.577C180.701,286.264 180.784,285.897 180.784,285.477C180.784,285.057 180.701,284.69 180.534,284.377C180.368,284.064 180.144,283.822 179.863,283.652C179.581,283.482 179.266,283.396 178.918,283.396C178.569,283.396 178.254,283.482 177.972,283.652C177.691,283.822 177.467,284.064 177.301,284.377C177.134,284.69 177.051,285.057 177.051,285.477C177.051,285.897 177.134,286.264 177.301,286.577C177.467,286.89 177.691,287.131 177.972,287.302C178.254,287.472 178.569,287.557 178.918,287.557Z" style="fill:rgb(159,120,0);fill-rule:nonzero;"/>
            <path d="M190.426,289.828C189.53,289.828 188.726,289.642 188.012,289.269C187.299,288.897 186.74,288.38 186.336,287.718C185.932,287.056 185.73,286.309 185.73,285.477C185.73,284.645 185.932,283.898 186.336,283.236C186.74,282.574 187.299,282.057 188.012,281.685C188.726,281.312 189.53,281.126 190.426,281.126C191.321,281.126 192.126,281.312 192.839,281.685C193.552,282.057 194.111,282.574 194.515,283.236C194.92,283.898 195.122,284.645 195.122,285.477C195.122,286.309 194.92,287.056 194.515,287.718C194.111,288.38 193.552,288.897 192.839,289.269C192.126,289.642 191.321,289.828 190.426,289.828ZM190.426,287.557C190.774,287.557 191.089,287.472 191.371,287.302C191.652,287.131 191.876,286.89 192.042,286.577C192.209,286.264 192.292,285.897 192.292,285.477C192.292,285.057 192.209,284.69 192.042,284.377C191.876,284.064 191.652,283.822 191.371,283.652C191.089,283.482 190.774,283.396 190.426,283.396C190.077,283.396 189.762,283.482 189.481,283.652C189.199,283.822 188.975,284.064 188.809,284.377C188.642,284.69 188.559,285.057 188.559,285.477C188.559,285.897 188.642,286.264 188.809,286.577C188.975,286.89 189.199,287.131 189.481,287.302C189.762,287.472 190.077,287.557 190.426,287.557Z" style="fill:rgb(159,120,0);fill-rule:nonzero;"/>
            <path d="M197.571,281.316L200.376,281.316L200.376,287.462L204.133,287.462L204.133,289.638L197.571,289.638L197.571,281.316Z" style="fill:rgb(159,120,0);fill-rule:nonzero;"/>
            <path d="M212.99,285.287C213.481,285.469 213.862,285.735 214.131,286.083C214.401,286.432 214.536,286.852 214.536,287.343C214.536,288.073 214.234,288.637 213.632,289.038C213.03,289.438 212.158,289.638 211.017,289.638L206.332,289.638L206.332,281.316L210.779,281.316C211.888,281.316 212.727,281.514 213.293,281.91C213.86,282.307 214.143,282.834 214.143,283.492C214.143,283.88 214.046,284.229 213.852,284.538C213.658,284.847 213.37,285.097 212.99,285.287ZM209.091,283.278L209.091,284.514L210.398,284.514C211.009,284.514 211.314,284.308 211.314,283.896C211.314,283.484 211.009,283.278 210.398,283.278L209.091,283.278ZM210.779,287.676C211.397,287.676 211.706,287.458 211.706,287.022C211.706,286.587 211.397,286.369 210.779,286.369L209.091,286.369L209.091,287.676L210.779,287.676Z" style="fill:rgb(159,120,0);fill-rule:nonzero;"/>
            <path d="M221.312,289.828C220.416,289.828 219.612,289.642 218.899,289.269C218.185,288.897 217.627,288.38 217.222,287.718C216.818,287.056 216.616,286.309 216.616,285.477C216.616,284.645 216.818,283.898 217.222,283.236C217.627,282.574 218.185,282.057 218.899,281.685C219.612,281.312 220.416,281.126 221.312,281.126C222.208,281.126 223.012,281.312 223.725,281.685C224.439,282.057 224.997,282.574 225.402,283.236C225.806,283.898 226.008,284.645 226.008,285.477C226.008,286.309 225.806,287.056 225.402,287.718C224.997,288.38 224.439,288.897 223.725,289.269C223.012,289.642 222.208,289.828 221.312,289.828ZM221.312,287.557C221.661,287.557 221.976,287.472 222.257,287.302C222.539,287.131 222.762,286.89 222.929,286.577C223.095,286.264 223.179,285.897 223.179,285.477C223.179,285.057 223.095,284.69 222.929,284.377C222.762,284.064 222.539,283.822 222.257,283.652C221.976,283.482 221.661,283.396 221.312,283.396C220.963,283.396 220.648,283.482 220.367,283.652C220.086,283.822 219.862,284.064 219.695,284.377C219.529,284.69 219.446,285.057 219.446,285.477C219.446,285.897 219.529,286.264 219.695,286.577C219.862,286.89 220.086,287.131 220.367,287.302C220.648,287.472 220.963,287.557 221.312,287.557Z" style="fill:rgb(159,120,0);fill-rule:nonzero;"/>
            <path d="M233.426,289.638L231.988,287.415L230.585,289.638L227.387,289.638L230.395,285.441L227.494,281.316L230.645,281.316L232.059,283.408L233.438,281.316L236.458,281.316L233.569,285.334L236.636,289.638L233.426,289.638Z" style="fill:rgb(159,120,0);fill-rule:nonzero;"/>
        </g>
        <g transform="matrix(0.40749,0,0,0.548154,75.9103,-176.694)">
            <rect x="191.044" y="671.629" width="611.735" height="103.62" style="fill:rgb(246,246,246);"/>
        </g>
        <g transform="matrix(4.11785,0,0,4.11785,-510.955,-960.224)">
            <path d="M170.188,286.438C170.549,286.572 170.829,286.768 171.027,287.024C171.226,287.28 171.325,287.589 171.325,287.951C171.325,288.487 171.103,288.902 170.66,289.196C170.217,289.491 169.576,289.638 168.737,289.638L165.292,289.638L165.292,283.518L168.562,283.518C169.378,283.518 169.994,283.664 170.411,283.955C170.828,284.247 171.036,284.634 171.036,285.118C171.036,285.404 170.965,285.66 170.822,285.887C170.679,286.115 170.468,286.298 170.188,286.438ZM167.321,284.961L167.321,285.87L168.282,285.87C168.731,285.87 168.955,285.718 168.955,285.415C168.955,285.112 168.731,284.961 168.282,284.961L167.321,284.961ZM168.562,288.195C169.017,288.195 169.244,288.035 169.244,287.715C169.244,287.394 169.017,287.234 168.562,287.234L167.321,287.234L167.321,288.195L168.562,288.195Z" style="fill:rgb(167,167,167);fill-rule:nonzero;"/>
            <path d="M178.052,289.778C177.394,289.778 176.802,289.641 176.278,289.367C175.753,289.093 175.342,288.713 175.045,288.226C174.748,287.739 174.599,287.19 174.599,286.578C174.599,285.966 174.748,285.417 175.045,284.93C175.342,284.443 175.753,284.063 176.278,283.789C176.802,283.515 177.394,283.378 178.052,283.378C178.711,283.378 179.303,283.515 179.827,283.789C180.352,284.063 180.763,284.443 181.06,284.93C181.357,285.417 181.506,285.966 181.506,286.578C181.506,287.19 181.357,287.739 181.06,288.226C180.763,288.713 180.352,289.093 179.827,289.367C179.303,289.641 178.711,289.778 178.052,289.778ZM178.052,288.108C178.309,288.108 178.541,288.045 178.747,287.92C178.954,287.795 179.119,287.617 179.241,287.387C179.364,287.157 179.425,286.887 179.425,286.578C179.425,286.269 179.364,286 179.241,285.769C179.119,285.539 178.954,285.361 178.747,285.236C178.541,285.111 178.309,285.048 178.052,285.048C177.796,285.048 177.564,285.111 177.357,285.236C177.151,285.361 176.986,285.539 176.863,285.769C176.741,286 176.68,286.269 176.68,286.578C176.68,286.887 176.741,287.157 176.863,287.387C176.986,287.617 177.151,287.795 177.357,287.92C177.564,288.045 177.796,288.108 178.052,288.108Z" style="fill:rgb(167,167,167);fill-rule:nonzero;"/>
            <path d="M187.674,288.099L187.115,288.099L187.115,289.638L185.051,289.638L185.051,283.518L187.998,283.518C188.563,283.518 189.055,283.612 189.475,283.798C189.895,283.985 190.218,284.253 190.445,284.602C190.673,284.952 190.786,285.36 190.786,285.826C190.786,286.263 190.687,286.645 190.489,286.972C190.291,287.298 190.005,287.557 189.632,287.75L190.918,289.638L188.714,289.638L187.674,288.099ZM188.706,285.826C188.706,285.599 188.636,285.423 188.496,285.297C188.356,285.172 188.146,285.109 187.866,285.109L187.115,285.109L187.115,286.543L187.866,286.543C188.146,286.543 188.356,286.48 188.496,286.355C188.636,286.23 188.706,286.054 188.706,285.826Z" style="fill:rgb(167,167,167);fill-rule:nonzero;"/>
            <path d="M199.446,288.082L199.446,289.638L194.358,289.638L194.358,283.518L199.333,283.518L199.333,285.074L196.386,285.074L196.386,285.791L198.974,285.791L198.974,287.277L196.386,287.277L196.386,288.082L199.446,288.082Z" style="fill:rgb(167,167,167);fill-rule:nonzero;"/>
            <path d="M203.036,283.518L205.099,283.518L205.099,288.038L207.861,288.038L207.861,289.638L203.036,289.638L203.036,283.518Z" style="fill:rgb(167,167,167);fill-rule:nonzero;"/>
            <path d="M215.481,288.571L213.156,288.571L212.745,289.638L210.646,289.638L213.322,283.518L215.35,283.518L218.025,289.638L215.892,289.638L215.481,288.571ZM214.913,287.085L214.318,285.546L213.724,287.085L214.913,287.085Z" style="fill:rgb(167,167,167);fill-rule:nonzero;"/>
        </g>
    </g>
</svg>
