<?xml version="1.0" encoding="utf-8"?>
<!-- Generator: Adobe Illustrator 16.0.0, SVG Export Plug-In . SVG Version: 6.00 Build 0)  -->
<!DOCTYPE svg PUBLIC "-//W3C//DTD SVG 1.1//EN" "http://www.w3.org/Graphics/SVG/1.1/DTD/svg11.dtd">
<svg version="1.1" id="Layer_1" xmlns="http://www.w3.org/2000/svg" xmlns:xlink="http://www.w3.org/1999/xlink" x="0px" y="0px"
	 width="1725.842px" height="1840px" viewBox="0 0 1725.842 1840" enable-background="new 0 0 1725.842 1840" xml:space="preserve">
<path fill="#2E2E2C" d="M1725.842-1377.754c0,0.013,0.001,0.026,0.001,0.039v-0.077
	C1725.843-1377.78,1725.842-1377.768,1725.842-1377.754z"/>
<g>
	<g>
		<path fill="#2E2E2C" d="M504.675,1064.286c0,1.979-1.604,3.582-3.581,3.582H193.062c-1.978,0-3.582-1.604-3.582-3.582V756.255
			c0-1.979,1.604-3.582,3.582-3.582h308.032c1.978,0,3.581,1.604,3.581,3.582V1064.286z"/>
		<path fill="#F7DB3D" d="M465.123,1025.632c0,1.482-1.201,2.684-2.684,2.684H231.715c-1.481,0-2.683-1.201-2.683-2.684V794.907
			c0-1.48,1.201-2.682,2.683-2.682h230.725c1.482,0,2.684,1.201,2.684,2.682V1025.632z"/>
		<polygon fill="#2E2E2C" points="407.199,690.589 286.956,690.589 265.465,690.589 265.445,690.589 265.445,712.079 
			265.465,712.079 265.465,752.673 286.956,752.673 286.956,712.079 407.199,712.079 407.199,752.673 428.689,752.673 
			428.689,712.079 428.689,690.589 		"/>
		<path fill="#2E2E2C" d="M376.271,850.361c-18.754-18.754-46.386-23.209-69.364-13.378l41.366,41.373l-33.112,33.111L273.79,870.1
			c-9.833,22.977-5.374,50.609,13.378,69.361c18.751,18.756,46.385,23.211,69.364,13.378l35.792,35.792l33.115-33.115
			l-35.795-35.791C399.476,896.747,395.023,869.113,376.271,850.361z"/>
	</g>
	<g>
		<g>
			<path fill="#2E2E2C" d="M964.479,1064.286c0,1.979-1.604,3.582-3.581,3.582H652.866c-1.978,0-3.582-1.604-3.582-3.582V756.255
				c0-1.979,1.604-3.582,3.582-3.582h308.032c1.978,0,3.581,1.604,3.581,3.582V1064.286z"/>
			<path fill="#F7DB3D" d="M924.928,1025.632c0,1.482-1.201,2.684-2.684,2.684H691.52c-1.481,0-2.683-1.201-2.683-2.684V794.907
				c0-1.48,1.201-2.682,2.683-2.682h230.725c1.482,0,2.684,1.201,2.684,2.682V1025.632z"/>
			<polygon fill="#2E2E2C" points="867.004,690.589 746.761,690.589 725.27,690.589 725.25,690.589 725.25,712.079 725.27,712.079 
				725.27,752.673 746.761,752.673 746.761,712.079 867.004,712.079 867.004,752.673 888.494,752.673 888.494,712.079 
				888.494,690.589 			"/>
			<path fill="#2E2E2C" d="M836.076,850.361c-18.754-18.754-46.386-23.209-69.364-13.378l41.366,41.373l-33.112,33.111
				L733.595,870.1c-9.833,22.977-5.374,50.609,13.378,69.361c18.751,18.756,46.385,23.211,69.364,13.378l35.792,35.792
				l33.115-33.115l-35.795-35.791C859.281,896.747,854.828,869.113,836.076,850.361z"/>
		</g>
		<g>
			<g>
				<rect x="1173.69" y="896.562" fill="#E5E6E7" width="471.047" height="171.307"/>
				<g>
					<path fill="#F7DB3D" d="M1173.69,1065.921c0,1.076-0.872,1.947-1.947,1.947h-167.414c-1.075,0-1.946-0.871-1.946-1.947V898.507
						c0-1.074,0.872-1.945,1.946-1.945h167.414c1.076,0,1.947,0.871,1.947,1.945V1065.921z"/>
					<g>
						<path d="M1071.52,1036.005l6.836-0.938c0.182,4.375,1.002,7.37,2.46,8.984c1.458,1.615,3.477,2.421,6.054,2.421
							c1.901,0,3.542-0.435,4.922-1.309c1.38-0.871,2.331-2.057,2.852-3.554s0.781-3.887,0.781-7.168v-39.451h7.577v39.021
							c0,4.792-0.58,8.503-1.737,11.133c-1.159,2.63-2.995,4.635-5.508,6.015c-2.514,1.38-5.462,2.07-8.847,2.07
							c-5.026,0-8.874-1.445-11.542-4.335C1072.697,1046.005,1071.415,1041.708,1071.52,1036.005z"/>
						<path d="M1112.807,1033.856l7.147-0.625c0.339,2.865,1.126,5.215,2.364,7.051c1.236,1.836,3.158,3.32,5.762,4.453
							c2.604,1.133,5.533,1.698,8.789,1.698c2.89,0,5.442-0.429,7.656-1.288c2.213-0.86,3.86-2.038,4.941-3.535
							c1.08-1.497,1.621-3.131,1.621-4.902c0-1.797-0.521-3.365-1.562-4.707c-1.042-1.34-2.761-2.467-5.156-3.378
							c-1.537-0.599-4.935-1.53-10.195-2.794c-5.261-1.263-8.945-2.453-11.054-3.574c-2.734-1.432-4.772-3.209-6.113-5.331
							c-1.341-2.122-2.012-4.498-2.012-7.129c0-2.891,0.821-5.592,2.461-8.105c1.641-2.513,4.036-4.419,7.188-5.723
							c3.15-1.302,6.653-1.952,10.507-1.952c4.245,0,7.989,0.684,11.23,2.051c3.243,1.366,5.735,3.379,7.48,6.035
							c1.745,2.655,2.682,5.663,2.813,9.022l-7.265,0.547c-0.391-3.619-1.713-6.354-3.965-8.203
							c-2.253-1.849-5.579-2.773-9.98-2.773c-4.583,0-7.923,0.84-10.019,2.52c-2.097,1.681-3.145,3.705-3.145,6.074
							c0,2.058,0.742,3.75,2.226,5.078c1.458,1.328,5.267,2.688,11.425,4.082c6.159,1.394,10.384,2.61,12.675,3.651
							c3.333,1.537,5.793,3.483,7.382,5.84c1.589,2.357,2.384,5.072,2.384,8.145c0,3.047-0.873,5.918-2.618,8.613
							s-4.251,4.791-7.52,6.288c-3.268,1.498-6.946,2.246-11.034,2.246c-5.183,0-9.525-0.755-13.027-2.265
							c-3.503-1.511-6.25-3.782-8.242-6.816C1113.959,1041.116,1112.911,1037.685,1112.807,1033.856z"/>
					</g>
				</g>
				<g>
					<path d="M1205.146,963.458h-19.274v-11.359h52.487v11.359h-19.274v48.873h-13.939V963.458z"/>
					<path d="M1241.203,982.216c0-17.898,13.939-31.148,32.955-31.148c18.93,0,32.955,13.164,32.955,31.148
						c0,17.982-14.025,31.146-32.955,31.146C1255.142,1013.362,1241.203,1000.112,1241.203,982.216z M1293.001,982.216
						c0-11.445-8.088-19.275-18.844-19.275c-10.755,0-18.844,7.83-18.844,19.275c0,11.443,8.088,19.273,18.844,19.273
						C1284.914,1001.489,1293.001,993.659,1293.001,982.216z"/>
					<path d="M1313.829,982.216c0-17.898,13.939-31.148,32.955-31.148c18.93,0,32.955,13.164,32.955,31.148
						c0,17.982-14.025,31.146-32.955,31.146C1327.768,1013.362,1313.829,1000.112,1313.829,982.216z M1365.627,982.216
						c0-11.445-8.088-19.275-18.844-19.275c-10.755,0-18.844,7.83-18.844,19.275c0,11.443,8.088,19.273,18.844,19.273
						C1357.54,1001.489,1365.627,993.659,1365.627,982.216z"/>
					<path d="M1390.241,952.099h13.939v48.875h30.201v11.357h-44.141V952.099z"/>
					<path d="M1497.455,995.896c0,10.412-8.26,16.436-24.093,16.436h-31.148v-60.232h29.427c15.058,0,22.802,6.281,22.802,15.66
						c0,6.023-3.098,10.67-8.002,13.252C1493.153,983.161,1497.455,988.323,1497.455,995.896z M1456.067,962.597v14.197h13.854
						c6.797,0,10.497-2.408,10.497-7.141s-3.7-7.057-10.497-7.057H1456.067z M1483.43,994.433c0-5.076-3.872-7.484-11.1-7.484
						h-16.263v14.885h16.263C1479.558,1001.833,1483.43,999.597,1483.43,994.433z"/>
					<path d="M1504.257,982.216c0-17.898,13.939-31.148,32.955-31.148c18.93,0,32.955,13.164,32.955,31.148
						c0,17.982-14.025,31.146-32.955,31.146C1518.196,1013.362,1504.257,1000.112,1504.257,982.216z M1556.056,982.216
						c0-11.445-8.088-19.275-18.844-19.275c-10.755,0-18.844,7.83-18.844,19.275c0,11.443,8.088,19.273,18.844,19.273
						C1547.968,1001.489,1556.056,993.659,1556.056,982.216z"/>
					<path d="M1616.463,1012.331l-14.541-20.91l-14.283,20.91h-16.004l22.285-30.633l-21.167-29.6h15.832l13.853,19.533
						l13.596-19.533h15.058l-20.995,29.084l22.458,31.148H1616.463z"/>
				</g>
			</g>
			<g>
				<path d="M1089.088,845.433c0,16.343-12.965,25.796-37.814,25.796h-48.891v-94.539h46.189c23.635,0,35.79,9.86,35.79,24.581
					c0,9.454-4.861,16.747-12.561,20.799C1082.335,825.445,1089.088,833.55,1089.088,845.433z M1024.127,793.168v22.284h21.743
					c10.669,0,16.477-3.782,16.477-11.21s-5.807-11.074-16.477-11.074H1024.127z M1067.074,843.138
					c0-7.968-6.078-11.75-17.423-11.75h-25.524v23.365h25.524C1060.996,854.753,1067.074,851.241,1067.074,843.138z"/>
				<path d="M1099.76,823.96c0-28.091,21.878-48.891,51.725-48.891c29.712,0,51.727,20.664,51.727,48.891
					s-22.015,48.89-51.727,48.89C1121.638,872.85,1099.76,852.052,1099.76,823.96z M1181.063,823.96
					c0-17.963-12.695-30.252-29.577-30.252c-16.881,0-29.577,12.289-29.577,30.252c0,17.962,12.696,30.252,29.577,30.252
					C1168.367,854.212,1181.063,841.922,1181.063,823.96z"/>
				<path d="M1279.926,871.229l-18.233-26.337h-1.081h-19.042v26.337h-21.878v-94.539h40.92c25.256,0,41.057,13.102,41.057,34.305
					c0,14.181-7.157,24.579-19.447,29.848l21.203,30.387H1279.926z M1259.396,794.519h-17.827v32.952h17.827
					c13.371,0,20.124-6.213,20.124-16.477C1279.521,800.597,1272.767,794.519,1259.396,794.519z"/>
				<path d="M1392.157,853.672v17.557h-73.2v-94.539h71.444v17.559h-49.7v20.528h43.891v17.017h-43.891v21.879H1392.157z"/>
				<path d="M1409.58,776.689h21.878v76.713h47.405v17.826h-69.283V776.689z"/>
				<path d="M1554.224,850.971h-43.893l-8.373,20.258h-22.418l42.136-94.539h21.608l42.272,94.539h-22.958L1554.224,850.971z
					 M1547.336,834.359l-14.991-36.193l-14.993,36.193H1547.336z"/>
			</g>
		</g>
	</g>
</g>
</svg>
