<?xml version="1.0" encoding="UTF-8" standalone="no"?>
<!DOCTYPE svg PUBLIC "-//W3C//DTD SVG 1.1//EN" "http://www.w3.org/Graphics/SVG/1.1/DTD/svg11.dtd">
<svg width="100%" height="100%" viewBox="0 0 2127 700" version="1.1" xmlns="http://www.w3.org/2000/svg" xmlns:xlink="http://www.w3.org/1999/xlink" xml:space="preserve" xmlns:serif="http://www.serif.com/" style="fill-rule:evenodd;clip-rule:evenodd;stroke-linejoin:round;stroke-miterlimit:1.41421;">
    <g transform="matrix(1,0,0,1,-318.508,-1393.59)">
        <g transform="matrix(2.7,0,0,1.1,-2828.97,1193.59)">
            <g transform="matrix(0.37037,0,0,0.909091,31.4815,-2.27374e-13)">
                <g transform="matrix(0.634037,0,0,0.359288,3045.06,83.8259)">
                    <path d="M737.203,796.504L264.045,796.504L264.045,323.346L737.203,323.346L737.203,796.504ZM327.133,434.677L327.133,685.173L674.116,685.173L674.116,434.677L327.133,434.677Z"/>
                </g>
                <g transform="matrix(1.26807,0,0,1.26807,2727.65,-110.026)">
                    <rect x="264.045" y="323.346" width="473.159" height="473.159" style="fill:rgb(255,234,66);"/>
                    <path d="M737.203,796.504L264.045,796.504L264.045,323.346L737.203,323.346L737.203,796.504ZM319.247,378.548L319.247,741.303L682.002,741.303L682.002,378.548L319.247,378.548Z"/>
                </g>
            </g>
        </g>
        <g transform="matrix(2.7,0,0,1.1,-2828.97,1193.59)">
            <g transform="matrix(0.302599,0,0,0.875128,680.331,80.6957)">
                <path d="M1990.13,565.74L2036.51,565.634L2036.7,651.363C2036.74,670.37 2031.89,684.636 2022.14,694.162C2012.4,703.687 1998.09,708.471 1979.21,708.515C1968.31,708.539 1958.44,706.801 1949.59,703.299C1940.75,699.797 1933.46,694.663 1927.73,687.897L1952.98,657.934C1956.71,662.577 1960.37,666.025 1963.97,668.276C1967.56,670.528 1971.29,671.649 1975.14,671.64C1980.06,671.629 1983.81,670.158 1986.39,667.228C1988.98,664.298 1990.27,659.976 1990.25,654.26L1990.13,601.228L1990.13,565.74Z" style="fill-rule:nonzero;"/>
            </g>
            <g transform="matrix(0.241332,-0.00159134,0.000550248,0.69794,796.068,477.154)">
                <path d="M2181.2,324.945C2166.7,324.944 2152.58,323.32 2138.83,320.07C2125.08,316.82 2113.79,312.445 2104.95,306.946L2123.95,263.948C2132.29,268.781 2141.62,272.656 2151.95,275.572C2162.28,278.489 2172.2,279.947 2181.7,279.947C2189.87,279.947 2195.7,279.156 2199.2,277.572C2202.7,275.989 2204.45,273.614 2204.45,270.448C2204.45,266.781 2202.16,264.031 2197.57,262.198C2192.99,260.365 2185.45,258.365 2174.95,256.199C2161.45,253.365 2150.2,250.324 2141.2,247.074C2132.2,243.824 2124.37,238.491 2117.7,231.075C2111.04,223.659 2107.7,213.618 2107.7,200.952C2107.7,189.952 2110.79,179.953 2116.95,170.954C2123.12,161.954 2132.33,154.871 2144.58,149.705C2156.83,144.538 2171.7,141.955 2189.2,141.955C2201.2,141.955 2212.99,143.247 2224.57,145.83C2236.16,148.413 2246.36,152.205 2255.2,157.204L2237.45,199.952C2220.28,191.286 2204.03,186.953 2188.7,186.953C2173.53,186.953 2165.95,190.619 2165.95,197.952C2165.95,201.452 2168.2,204.077 2172.7,205.826C2177.2,207.576 2184.62,209.451 2194.95,211.451C2208.28,213.951 2219.53,216.826 2228.7,220.076C2237.86,223.325 2245.82,228.617 2252.57,235.95C2259.32,243.283 2262.7,253.282 2262.7,265.948C2262.7,276.947 2259.61,286.905 2253.45,295.821C2247.28,304.737 2238.07,311.82 2225.82,317.07C2213.57,322.32 2198.7,324.944 2181.2,324.945Z" style="fill-rule:nonzero;"/>
            </g>
        </g>
        <g transform="matrix(2.7,0,0,1.1,-2828.97,1193.59)">
            <g transform="matrix(0.37037,0,0,0.909091,1047.77,-1085.08)">
                <path d="M2444.54,1823.61C2444.54,1823.61 2444.54,2093.59 2444.54,2093.59L1029.09,2093.59L1029.09,1760.51C1029.09,1760.51 1029.09,1493.59 1029.09,1493.59L2444.54,1493.59L2444.54,1823.61ZM2404.54,1823.61L1069.09,1823.61L1069.09,2053.59L2404.54,2053.59L2404.54,1823.61Z" style="fill-rule:nonzero;"/>
            </g>
        </g>
        <g transform="matrix(2.7,0,0,1.1,-2828.97,1193.59)">
            <g transform="matrix(0.352877,0,0,0.866153,761.518,215.144)">
                <path d="M2112.45,229.45C2122.79,233.283 2130.79,238.866 2136.45,246.199C2142.12,253.532 2144.95,262.365 2144.95,272.698C2144.95,288.03 2138.62,299.904 2125.95,308.32C2113.29,316.737 2094.95,320.945 2070.96,320.945L1972.46,320.945L1972.46,145.955L2065.96,145.955C2089.29,145.955 2106.91,150.121 2118.83,158.454C2130.74,166.787 2136.7,177.87 2136.7,191.702C2136.7,199.868 2134.66,207.201 2130.58,213.701C2126.49,220.201 2120.45,225.45 2112.45,229.45ZM2030.46,187.203L2030.46,213.201L2057.96,213.201C2070.79,213.201 2077.21,208.868 2077.21,200.202C2077.21,191.536 2070.79,187.203 2057.96,187.203L2030.46,187.203ZM2065.96,279.697C2078.96,279.697 2085.45,275.114 2085.45,265.948C2085.45,256.782 2078.96,252.199 2065.96,252.199L2030.46,252.199L2030.46,279.697L2065.96,279.697Z" style="fill:rgb(255,234,67);fill-rule:nonzero;"/>
                <path d="M2302.01,324.945C2283.18,324.944 2266.26,321.028 2251.26,313.195C2236.26,305.362 2224.51,294.488 2216.01,280.572C2207.51,266.656 2203.26,250.949 2203.26,233.45C2203.26,215.951 2207.51,200.243 2216.01,186.328C2224.51,172.412 2236.26,161.537 2251.26,153.705C2266.26,145.872 2283.18,141.955 2302.01,141.955C2320.84,141.955 2337.76,145.872 2352.76,153.705C2367.75,161.537 2379.5,172.412 2388,186.328C2396.5,200.243 2400.75,215.951 2400.75,233.45C2400.75,250.949 2396.5,266.656 2388,280.572C2379.5,294.488 2367.75,305.362 2352.76,313.195C2337.76,321.028 2320.84,324.944 2302.01,324.945ZM2302.01,277.197C2309.34,277.197 2315.97,275.406 2321.88,271.823C2327.8,268.239 2332.51,263.156 2336.01,256.574C2339.51,249.991 2341.26,242.283 2341.26,233.45C2341.26,224.617 2339.51,216.909 2336.01,210.326C2332.51,203.743 2327.8,198.66 2321.88,195.077C2315.97,191.494 2309.34,189.702 2302.01,189.702C2294.68,189.702 2288.05,191.494 2282.13,195.077C2276.22,198.66 2271.51,203.743 2268.01,210.326C2264.51,216.909 2262.76,224.617 2262.76,233.45C2262.76,242.283 2264.51,249.991 2268.01,256.574C2271.51,263.156 2276.22,268.239 2282.13,271.823C2288.05,275.406 2294.68,277.197 2302.01,277.197Z" style="fill:rgb(255,234,67);fill-rule:nonzero;"/>
                <path d="M2541.81,276.947L2525.81,276.947L2525.81,320.945L2466.81,320.945L2466.81,145.955L2551.06,145.955C2567.22,145.955 2581.31,148.621 2593.31,153.955C2605.3,159.288 2614.55,166.954 2621.05,176.953C2627.55,186.953 2630.8,198.619 2630.8,211.951C2630.8,224.45 2627.97,235.366 2622.3,244.699C2616.64,254.032 2608.47,261.448 2597.81,266.948L2634.55,320.945L2571.56,320.945L2541.81,276.947ZM2571.31,211.951C2571.31,205.452 2569.31,200.41 2565.31,196.827C2561.31,193.244 2555.31,191.452 2547.31,191.452L2525.81,191.452L2525.81,232.45L2547.31,232.45C2555.31,232.45 2561.31,230.658 2565.31,227.075C2569.31,223.492 2571.31,218.451 2571.31,211.951Z" style="fill:rgb(255,234,67);fill-rule:nonzero;"/>
                <path d="M2843.11,276.447L2843.11,320.945L2697.62,320.945L2697.62,145.955L2839.86,145.955L2839.86,190.452L2755.61,190.452L2755.61,210.951L2829.61,210.951L2829.61,253.449L2755.61,253.449L2755.61,276.447L2843.11,276.447Z" style="fill:rgb(255,234,67);fill-rule:nonzero;"/>
                <path d="M2910.42,145.955L2969.41,145.955L2969.41,275.197L3048.41,275.197L3048.41,320.945L2910.42,320.945L2910.42,145.955Z" style="fill:rgb(255,234,67);fill-rule:nonzero;"/>
                <path d="M3230.96,290.447L3164.47,290.447L3152.72,320.945L3092.72,320.945L3169.22,145.955L3227.21,145.955L3303.71,320.945L3242.71,320.945L3230.96,290.447ZM3214.72,247.949L3197.72,203.952L3180.72,247.949L3214.72,247.949Z" style="fill:rgb(255,234,67);fill-rule:nonzero;"/>
            </g>
        </g>
        <g transform="matrix(2.7,0,0,1.1,-2828.97,1193.59)">
            <g transform="matrix(0.299633,0,0,0.735463,871.849,505.654)">
                <path d="M2010.46,191.702L1959.21,191.702L1959.21,145.955L2120.7,145.955L2120.7,191.702L2069.46,191.702L2069.46,320.945L2010.46,320.945L2010.46,191.702Z" style="fill-rule:nonzero;"/>
                <path d="M2262.7,324.945C2243.86,324.944 2226.95,321.028 2211.95,313.195C2196.95,305.362 2185.2,294.488 2176.7,280.572C2168.2,266.656 2163.95,250.949 2163.95,233.45C2163.95,215.951 2168.2,200.243 2176.7,186.328C2185.2,172.412 2196.95,161.537 2211.95,153.705C2226.95,145.872 2243.86,141.955 2262.7,141.955C2281.53,141.955 2298.44,145.872 2313.44,153.705C2328.44,161.537 2340.19,172.412 2348.69,186.328C2357.19,200.243 2361.44,215.951 2361.44,233.45C2361.44,250.949 2357.19,266.656 2348.69,280.572C2340.19,294.488 2328.44,305.362 2313.44,313.195C2298.44,321.028 2281.53,324.944 2262.7,324.945ZM2262.7,277.197C2270.03,277.197 2276.65,275.406 2282.57,271.823C2288.49,268.239 2293.19,263.156 2296.69,256.574C2300.19,249.991 2301.94,242.283 2301.94,233.45C2301.94,224.617 2300.19,216.909 2296.69,210.326C2293.19,203.743 2288.49,198.66 2282.57,195.077C2276.65,191.494 2270.03,189.702 2262.7,189.702C2255.36,189.702 2248.74,191.494 2242.82,195.077C2236.91,198.66 2232.2,203.743 2228.7,210.326C2225.2,216.909 2223.45,224.617 2223.45,233.45C2223.45,242.283 2225.2,249.991 2228.7,256.574C2232.2,263.156 2236.91,268.239 2242.82,271.823C2248.74,275.406 2255.36,277.197 2262.7,277.197Z" style="fill-rule:nonzero;"/>
                <path d="M2512.18,324.945C2493.35,324.944 2476.43,321.028 2461.43,313.195C2446.43,305.362 2434.68,294.488 2426.18,280.572C2417.69,266.656 2413.44,250.949 2413.44,233.45C2413.44,215.951 2417.69,200.243 2426.18,186.328C2434.68,172.412 2446.43,161.537 2461.43,153.705C2476.43,145.872 2493.35,141.955 2512.18,141.955C2531.01,141.955 2547.93,145.872 2562.93,153.705C2577.93,161.537 2589.68,172.412 2598.18,186.328C2606.68,200.243 2610.93,215.951 2610.93,233.45C2610.93,250.949 2606.68,266.656 2598.18,280.572C2589.68,294.488 2577.93,305.362 2562.93,313.195C2547.93,321.028 2531.01,324.944 2512.18,324.945ZM2512.18,277.197C2519.51,277.197 2526.14,275.406 2532.05,271.823C2537.97,268.239 2542.68,263.156 2546.18,256.574C2549.68,249.991 2551.43,242.283 2551.43,233.45C2551.43,224.617 2549.68,216.909 2546.18,210.326C2542.68,203.743 2537.97,198.66 2532.05,195.077C2526.14,191.494 2519.51,189.702 2512.18,189.702C2504.85,189.702 2498.22,191.494 2492.31,195.077C2486.39,198.66 2481.68,203.743 2478.18,210.326C2474.68,216.909 2472.93,224.617 2472.93,233.45C2472.93,242.283 2474.68,249.991 2478.18,256.574C2481.68,263.156 2486.39,268.239 2492.31,271.823C2498.22,275.406 2504.85,277.197 2512.18,277.197Z" style="fill-rule:nonzero;"/>
                <path d="M2669.92,145.955L2728.92,145.955L2728.92,275.197L2807.91,275.197L2807.91,320.945L2669.92,320.945L2669.92,145.955Z" style="fill-rule:nonzero;"/>
                <path d="M3001.65,229.45C3011.98,233.283 3019.98,238.866 3025.65,246.199C3031.32,253.532 3034.15,262.365 3034.15,272.698C3034.15,288.03 3027.82,299.904 3015.15,308.32C3002.49,316.737 2984.15,320.945 2960.15,320.945L2861.66,320.945L2861.66,145.955L2955.15,145.955C2978.49,145.955 2996.11,150.121 3008.03,158.454C3019.94,166.787 3025.9,177.87 3025.9,191.702C3025.9,199.868 3023.86,207.201 3019.78,213.701C3015.69,220.201 3009.65,225.45 3001.65,229.45ZM2919.66,187.203L2919.66,213.201L2947.16,213.201C2959.99,213.201 2966.4,208.868 2966.4,200.202C2966.4,191.536 2959.99,187.203 2947.16,187.203L2919.66,187.203ZM2955.15,279.697C2968.15,279.697 2974.65,275.114 2974.65,265.948C2974.65,256.782 2968.15,252.199 2955.15,252.199L2919.66,252.199L2919.66,279.697L2955.15,279.697Z" style="fill-rule:nonzero;"/>
                <path d="M3184.14,324.945C3165.31,324.944 3148.39,321.028 3133.39,313.195C3118.39,305.362 3106.64,294.488 3098.15,280.572C3089.65,266.656 3085.4,250.949 3085.4,233.45C3085.4,215.951 3089.65,200.243 3098.15,186.328C3106.64,172.412 3118.39,161.537 3133.39,153.705C3148.39,145.872 3165.31,141.955 3184.14,141.955C3202.97,141.955 3219.89,145.872 3234.89,153.705C3249.89,161.537 3261.64,172.412 3270.14,186.328C3278.64,200.243 3282.89,215.951 3282.89,233.45C3282.89,250.949 3278.64,266.656 3270.14,280.572C3261.64,294.488 3249.89,305.362 3234.89,313.195C3219.89,321.028 3202.97,324.944 3184.14,324.945ZM3184.14,277.197C3191.47,277.197 3198.1,275.406 3204.01,271.823C3209.93,268.239 3214.64,263.156 3218.14,256.574C3221.64,249.991 3223.39,242.283 3223.39,233.45C3223.39,224.617 3221.64,216.909 3218.14,210.326C3214.64,203.743 3209.93,198.66 3204.01,195.077C3198.1,191.494 3191.47,189.702 3184.14,189.702C3176.81,189.702 3170.18,191.494 3164.27,195.077C3158.35,198.66 3153.64,203.743 3150.14,210.326C3146.64,216.909 3144.89,224.617 3144.89,233.45C3144.89,242.283 3146.64,249.991 3150.14,256.574C3153.64,263.156 3158.35,268.239 3164.27,271.823C3170.18,275.406 3176.81,277.197 3184.14,277.197Z" style="fill-rule:nonzero;"/>
                <path d="M3446.38,320.945L3416.13,274.197L3386.63,320.945L3319.38,320.945L3382.63,232.7L3321.63,145.955L3387.88,145.955L3417.63,189.952L3446.63,145.955L3510.12,145.955L3449.38,230.45L3513.87,320.945L3446.38,320.945Z" style="fill-rule:nonzero;"/>
            </g>
        </g>
    </g>
</svg>
