<?xml version="1.0" encoding="UTF-8" standalone="no"?>
<!DOCTYPE svg PUBLIC "-//W3C//DTD SVG 1.1//EN" "http://www.w3.org/Graphics/SVG/1.1/DTD/svg11.dtd">
<svg width="100%" height="100%" viewBox="0 0 2127 700" version="1.1" xmlns="http://www.w3.org/2000/svg" xmlns:xlink="http://www.w3.org/1999/xlink" xml:space="preserve" xmlns:serif="http://www.serif.com/" style="fill-rule:evenodd;clip-rule:evenodd;stroke-linejoin:round;stroke-miterlimit:1.41421;">
    <g transform="matrix(1,0,0,1,-312.475,-2647.32)">
        <g transform="matrix(1,0,0,1,-2750,2447.32)">
            <g transform="matrix(0.634037,0,0,0.359288,3045.06,83.8259)">
                <path d="M737.203,796.504L264.045,796.504L264.045,323.346L737.203,323.346L737.203,796.504ZM327.133,434.677L327.133,685.173L674.116,685.173L674.116,434.677L327.133,434.677Z" style="fill:white;"/>
            </g>
            <g transform="matrix(1.26807,0,0,1.26807,2727.65,-110.026)">
                <path d="M737.203,796.504L264.045,796.504L264.045,323.346L737.203,323.346L737.203,796.504ZM319.247,378.548L319.247,741.303L682.002,741.303L682.002,378.548L319.247,378.548Z" style="fill:white;"/>
            </g>
        </g>
        <g transform="matrix(1,0,0,1,-2750,2447.32)">
            <g transform="matrix(2.7,0,0,1.1,-85,0)">
                <g transform="matrix(0.302599,0,0,0.875128,680.331,80.6957)">
                    <path d="M1990.13,565.74L2036.51,565.634L2036.7,651.363C2036.74,670.37 2031.89,684.636 2022.14,694.162C2012.4,703.687 1998.09,708.471 1979.21,708.515C1968.31,708.539 1958.44,706.801 1949.59,703.299C1940.75,699.797 1933.46,694.663 1927.73,687.897L1952.98,657.934C1956.71,662.577 1960.37,666.025 1963.97,668.276C1967.56,670.528 1971.29,671.649 1975.14,671.64C1980.06,671.629 1983.81,670.158 1986.39,667.228C1988.98,664.298 1990.27,659.976 1990.25,654.26L1990.13,601.228L1990.13,565.74Z" style="fill:white;fill-rule:nonzero;"/>
                </g>
                <g transform="matrix(0.241332,-0.00159134,0.000550248,0.69794,796.068,477.154)">
                    <path d="M2181.2,324.945C2166.7,324.944 2152.58,323.32 2138.83,320.07C2125.08,316.82 2113.79,312.445 2104.95,306.946L2123.95,263.948C2132.29,268.781 2141.62,272.656 2151.95,275.572C2162.28,278.489 2172.2,279.947 2181.7,279.947C2189.87,279.947 2195.7,279.156 2199.2,277.572C2202.7,275.989 2204.45,273.614 2204.45,270.448C2204.45,266.781 2202.16,264.031 2197.57,262.198C2192.99,260.365 2185.45,258.365 2174.95,256.199C2161.45,253.365 2150.2,250.324 2141.2,247.074C2132.2,243.824 2124.37,238.491 2117.7,231.075C2111.04,223.659 2107.7,213.618 2107.7,200.952C2107.7,189.952 2110.79,179.953 2116.95,170.954C2123.12,161.954 2132.33,154.871 2144.58,149.705C2156.83,144.538 2171.7,141.955 2189.2,141.955C2201.2,141.955 2212.99,143.247 2224.57,145.83C2236.16,148.413 2246.36,152.205 2255.2,157.204L2237.45,199.952C2220.28,191.286 2204.03,186.953 2188.7,186.953C2173.53,186.953 2165.95,190.619 2165.95,197.952C2165.95,201.452 2168.2,204.077 2172.7,205.826C2177.2,207.576 2184.62,209.451 2194.95,211.451C2208.28,213.951 2219.53,216.826 2228.7,220.076C2237.86,223.325 2245.82,228.617 2252.57,235.95C2259.32,243.283 2262.7,253.282 2262.7,265.948C2262.7,276.947 2259.61,286.905 2253.45,295.821C2247.28,304.737 2238.07,311.82 2225.82,317.07C2213.57,322.32 2198.7,324.944 2181.2,324.945Z" style="fill:white;fill-rule:nonzero;"/>
                </g>
            </g>
        </g>
        <g transform="matrix(1,0,0,1,-2750,2447.32)">
            <g transform="matrix(1,0,0,1,2750,-2447.32)">
                <path d="M2438.5,3347.32L1023.05,3347.32L1023.05,3014.23C1023.05,3014.23 1023.05,2747.32 1023.05,2747.32L2438.5,2747.32L2438.5,3347.32ZM2398.5,3077.34L1063.05,3077.34L1063.05,3307.32L2398.5,3307.32L2398.5,3077.34ZM1414.38,2993.58C1432.32,2993.58 1448.44,2989.85 1462.73,2982.38C1477.02,2974.92 1488.21,2964.56 1496.31,2951.3C1504.41,2938.04 1508.46,2923.08 1508.46,2906.4C1508.46,2889.73 1504.41,2874.77 1496.31,2861.51C1488.21,2848.25 1477.02,2837.89 1462.73,2830.43C1449.11,2823.31 1433.83,2819.59 1416.89,2819.26C1416.06,2819.24 1415.22,2819.23 1414.38,2819.23C1396.43,2819.23 1380.32,2822.96 1366.03,2830.43C1351.74,2837.89 1340.54,2848.25 1332.44,2861.51C1324.35,2874.77 1320.3,2889.73 1320.3,2906.4C1320.3,2923.08 1324.35,2938.04 1332.44,2951.3C1340.54,2964.56 1351.74,2974.92 1366.03,2982.38C1380.32,2989.85 1396.43,2993.58 1414.38,2993.58ZM1189.48,2823.04L1100.4,2823.04L1100.4,2989.77L1194.24,2989.77C1217.11,2989.77 1234.57,2985.76 1246.64,2977.74C1258.71,2969.72 1264.74,2958.41 1264.74,2943.8C1264.74,2933.95 1262.04,2925.54 1256.64,2918.55C1251.24,2911.57 1243.62,2906.24 1233.78,2902.59C1241.4,2898.78 1247.15,2893.78 1251.05,2887.59C1254.93,2881.39 1256.88,2874.41 1256.88,2866.63C1256.88,2853.45 1251.2,2842.89 1239.85,2834.95C1228.5,2827.01 1211.71,2823.04 1189.48,2823.04ZM2050.26,2823.04L1994.05,2823.04L1994.05,2989.77L2125.53,2989.77L2125.53,2946.18L2050.26,2946.18L2050.26,2823.04ZM1926.82,2823.04L1791.3,2823.04L1791.3,2989.77L1929.92,2989.77L1929.92,2947.37L1846.56,2947.37L1846.56,2925.46L1917.06,2925.46L1917.06,2884.97L1846.56,2884.97L1846.56,2865.44L1926.82,2865.44L1926.82,2823.04ZM1651.67,2823.04L1571.4,2823.04L1571.4,2989.77L1627.61,2989.77L1627.61,2947.85L1642.85,2947.85L1671.2,2989.77L1731.22,2989.77L1696.2,2938.32C1706.37,2933.08 1714.15,2926.01 1719.55,2917.12C1724.94,2908.23 1727.64,2897.83 1727.64,2885.92C1727.64,2873.22 1724.55,2862.1 1718.36,2852.58C1712.16,2843.05 1703.35,2835.74 1691.92,2830.66C1680.49,2825.58 1667.07,2823.04 1651.67,2823.04ZM2295.89,2823.04L2240.63,2823.04L2167.75,2989.77L2224.91,2989.77L2236.1,2960.71L2299.46,2960.71L2310.65,2989.77L2368.77,2989.77L2295.89,2823.04ZM1189.48,2950.47L1155.65,2950.47L1155.65,2924.27L1189.48,2924.27C1201.86,2924.27 1208.05,2928.64 1208.05,2937.37C1208.05,2946.1 1201.86,2950.47 1189.48,2950.47ZM1414.38,2948.09C1421.37,2948.09 1427.68,2946.38 1433.31,2942.96C1438.95,2939.55 1443.44,2934.71 1446.77,2928.44C1450.11,2922.16 1451.77,2914.82 1451.77,2906.4C1451.77,2897.99 1450.11,2890.64 1446.77,2884.37C1443.44,2878.1 1438.95,2873.26 1433.31,2869.84C1427.68,2866.43 1421.37,2864.72 1414.38,2864.72C1407.39,2864.72 1401.08,2866.43 1395.44,2869.84C1389.81,2873.26 1385.32,2878.1 1381.99,2884.37C1378.65,2890.64 1376.98,2897.99 1376.98,2906.4C1376.98,2914.82 1378.65,2922.16 1381.99,2928.44C1385.32,2934.71 1389.81,2939.55 1395.44,2942.96C1401.08,2946.38 1407.39,2948.09 1414.38,2948.09ZM2283.98,2920.22L2267.78,2878.3L2251.59,2920.22L2283.98,2920.22ZM1648.09,2905.45L1627.61,2905.45L1627.61,2866.39L1648.09,2866.39C1655.72,2866.39 1661.43,2868.1 1665.24,2871.51C1669.05,2874.93 1670.96,2879.73 1670.96,2885.92C1670.96,2892.11 1669.05,2896.92 1665.24,2900.33C1661.43,2903.74 1655.72,2905.45 1648.09,2905.45ZM1181.85,2887.11L1155.65,2887.11L1155.65,2862.34L1181.85,2862.34C1194.08,2862.34 1200.19,2866.47 1200.19,2874.73C1200.19,2882.98 1194.08,2887.11 1181.85,2887.11Z" style="fill:white;fill-rule:nonzero;"/>
            </g>
        </g>
        <g transform="matrix(1,0,0,1,-2750,2447.32)">
            <g transform="matrix(0.809009,0,0,0.809009,2268.99,556.219)">
                <text x="1958.21px" y="320.945px" style="font-family:'Montserrat-Black', 'Montserrat';font-weight:900;font-size:249.985px;fill:white;">T<tspan x="2156.7px 2406.19px 2655.67px 2847.41px 3078.15px 3321.38px " y="320.945px 320.945px 320.945px 320.945px 320.945px 320.945px ">OOLBOX</tspan></text>
            </g>
        </g>
    </g>
</svg>
